<svg width="332" height="338" viewBox="0 0 332 338" fill="none" xmlns="http://www.w3.org/2000/svg">
<path d="M72.1447 74.1235C64.6704 96.9318 64.84 130.247 74.9628 154.415C62.6459 181.866 55.1839 210.938 51.6133 235.116C72.1757 251.042 103.093 256.366 121.703 257.576C125.965 264.362 136.056 271.15 143.644 272.577C151.937 274.137 158.896 274.729 165.987 274.545C173.078 274.729 180.037 274.137 188.331 272.577C195.919 271.15 206.01 264.362 210.271 257.576C228.88 256.367 259.837 251.042 280.401 235.116C277.291 205.846 269.233 176.12 257.012 154.456C267.153 130.284 267.309 96.947 259.83 74.1235C239.931 77.8774 222.404 90.9058 213.775 102.936C199.942 94.7992 184.089 89.9439 167.237 89.9439C166.4 89.9197 165.583 89.9439 164.741 89.9439C147.89 89.9439 132.073 94.8014 118.242 102.936C109.616 90.9025 92.051 77.8787 72.1476 74.1235H72.1447Z" fill="#5B584A" stroke="#231E0E" stroke-width="6.9846"/>
<path d="M85.4252 202.411C73.8773 202.324 64.2651 214.026 57.9688 232.412V232.453C59.148 233.209 60.3292 233.925 61.5114 234.625C62.5436 235.235 63.5758 235.819 64.6112 236.387C64.8652 236.525 65.1212 236.661 65.3761 236.797C65.9146 237.087 66.4472 237.378 66.9865 237.658C67.7205 238.032 68.4564 238.407 69.2007 238.764C69.3891 238.856 69.5759 238.96 69.7644 239.051C86.2992 247.026 103.457 250.179 122.864 251.716C123.586 251.78 124.311 251.861 125.038 251.921C129.969 260.026 136.309 264.106 143.235 266.225C143.317 266.253 143.396 266.279 143.477 266.307C143.903 266.434 144.334 266.563 144.765 266.676C151.873 268.798 159.246 268.839 166.103 268.685C172.959 268.838 180.331 268.796 187.44 266.676C187.953 266.541 188.464 266.38 188.97 266.225C195.896 264.106 202.236 260.027 207.167 251.921C207.847 251.866 208.506 251.778 209.18 251.716C228.653 250.185 245.861 247.049 262.441 239.052C262.748 238.904 263.06 238.753 263.367 238.601C264.385 238.107 265.387 237.571 266.386 237.044C266.613 236.922 266.844 236.797 267.071 236.675C267.246 236.58 267.419 236.483 267.594 236.388C268.63 235.819 269.662 235.236 270.694 234.625C271.876 233.926 273.057 233.21 274.237 232.453V232.413C266.487 209.779 253.722 197.258 238.487 204.42C232.123 221.425 219.775 231.747 199.92 233.765C193.689 219.585 187.575 207.688 166.103 207.688C144.63 207.688 138.517 219.585 132.285 233.765C112.43 231.746 100.081 221.423 93.7183 204.42C90.8601 203.076 88.092 202.431 85.4252 202.411Z" fill="#ECE7DA"/>
<path d="M118.789 188.857C117.559 190.526 116.816 192.595 116.816 194.841C116.816 200.357 121.222 204.842 126.639 204.842C131.577 204.842 135.616 201.109 136.301 196.276L118.789 188.857Z" fill="#231E0E"/>
<path d="M212.579 188.857C213.809 190.526 214.551 192.595 214.551 194.841C214.551 200.357 210.146 204.842 204.728 204.842C199.791 204.842 195.752 201.109 195.066 196.276L212.579 188.857Z" fill="#231E0E"/>
<path d="M146.014 214.106C148.663 204.02 185.452 203.052 189.234 214.106C192.473 223.573 177.495 235.789 167.624 235.818C158.631 235.842 143.351 224.247 146.014 214.106Z" fill="#231E0E"/>
<path d="M78.617 94.6738C89.2601 101.679 99.6111 109.102 106.186 121.721C96.2247 131.226 89.7087 139.109 83.5755 151.862C73.7237 125.954 74.5306 108.801 78.617 94.6738Z" fill="#949389"/>
<path d="M251.921 94.6738C241.278 101.679 230.927 109.102 224.352 121.721C234.313 131.226 240.829 139.109 246.963 151.862C256.814 125.954 256.007 108.801 251.921 94.6738Z" fill="#949389"/>
<path opacity="0.46502" d="M192.493 146.591C200.299 142.634 218.829 152.122 226.651 162.035C230.601 169.022 230.856 175.591 229.3 181.956L181.91 201.63C191.831 187.189 194.836 168.524 192.493 146.591Z" fill="#949389"/>
<path opacity="0.46502" d="M140.037 146.591C132.231 142.634 113.701 152.122 105.877 162.035C101.927 169.022 101.672 175.591 103.228 181.956L150.618 201.63C140.697 187.189 137.693 168.524 140.037 146.591Z" fill="#949389"/>
</svg>
