<svg width="1024" height="1024" viewBox="0 0 1024 1024" fill="none" xmlns="http://www.w3.org/2000/svg">
<path d="M1008.33 449.031C1008.33 322.074 905.406 219.154 778.448 219.154H245.553C118.596 219.154 15.6758 322.074 15.6758 449.031C15.6758 449.217 15.6818 449.401 15.6818 449.587H15.6758V723.521C15.6758 791.521 70.7997 846.647 138.802 846.647C190.385 846.647 236.501 814.491 254.335 766.087L287.895 674.993C341.895 664.935 389.267 636.023 422.883 595.317H601.117C634.735 636.023 682.104 664.937 736.106 674.993L769.666 766.087C787.498 814.491 833.616 846.647 885.2 846.647C953.2 846.647 1008.33 791.523 1008.33 723.521V449.585H1008.32C1008.32 449.399 1008.33 449.217 1008.33 449.031Z" fill="#4B92B9"/>
<path d="M321.306 177.357H269.062C257.52 177.357 248.164 186.713 248.164 198.255V219.153H342.204V198.255C342.204 186.713 332.848 177.357 321.306 177.357Z" fill="#79CAE8"/>
<path d="M754.939 177.357H702.695C691.153 177.357 681.797 186.713 681.797 198.255V219.153H775.837V198.255C775.837 186.713 766.481 177.357 754.939 177.357Z" fill="#79CAE8"/>
<path d="M511.998 386.401C540.851 386.401 564.242 363.011 564.242 334.157C564.242 305.304 540.851 281.914 511.998 281.914C483.144 281.914 459.754 305.304 459.754 334.157C459.754 363.011 483.144 386.401 511.998 386.401Z" fill="#8EC766"/>
<path d="M511.998 349.831C520.655 349.831 527.672 342.814 527.672 334.157C527.672 325.501 520.655 318.483 511.998 318.483C503.342 318.483 496.324 325.501 496.324 334.157C496.324 342.814 503.342 349.831 511.998 349.831Z" fill="white"/>
<path d="M694.858 480.379C712.169 480.379 726.204 466.345 726.204 449.033C726.204 431.721 712.169 417.687 694.858 417.687C677.546 417.687 663.512 431.721 663.512 449.033C663.512 466.345 677.546 480.379 694.858 480.379Z" fill="#FFD85C"/>
<path d="M862.037 480.379C879.349 480.379 893.383 466.345 893.383 449.033C893.383 431.721 879.349 417.687 862.037 417.687C844.725 417.687 830.691 431.721 830.691 449.033C830.691 466.345 844.725 480.379 862.037 480.379Z" fill="#79CAE8"/>
<path d="M778.448 396.787C795.759 396.787 809.793 382.753 809.793 365.441C809.793 348.129 795.759 334.095 778.448 334.095C761.136 334.095 747.102 348.129 747.102 365.441C747.102 382.753 761.136 396.787 778.448 396.787Z" fill="#FF503D"/>
<path d="M778.448 563.971C795.759 563.971 809.793 549.937 809.793 532.625C809.793 515.313 795.759 501.279 778.448 501.279C761.136 501.279 747.102 515.313 747.102 532.625C747.102 549.937 761.136 563.971 778.448 563.971Z" fill="#8EC766"/>
<path d="M245.552 543.073C297.488 543.073 339.591 500.97 339.591 449.033C339.591 397.096 297.488 354.993 245.552 354.993C193.615 354.993 151.512 397.096 151.512 449.033C151.512 500.97 193.615 543.073 245.552 543.073Z" fill="#79CAE8"/>
<path d="M245.55 490.829C268.633 490.829 287.346 472.116 287.346 449.033C287.346 425.95 268.633 407.237 245.55 407.237C222.467 407.237 203.754 425.95 203.754 449.033C203.754 472.116 222.467 490.829 245.55 490.829Z" fill="#4B92B9"/>
<path d="M415.345 647.563C444.199 647.563 467.589 624.173 467.589 595.319C467.589 566.466 444.199 543.075 415.345 543.075C386.492 543.075 363.102 566.466 363.102 595.319C363.102 624.173 386.492 647.563 415.345 647.563Z" fill="#79CAE8"/>
<path d="M608.654 647.563C637.508 647.563 660.898 624.173 660.898 595.319C660.898 566.466 637.508 543.075 608.654 543.075C579.801 543.075 556.41 566.466 556.41 595.319C556.41 624.173 579.801 647.563 608.654 647.563Z" fill="#79CAE8"/>
<path d="M467.591 579.643H431.019V543.071H399.674V579.643H363.102V610.989H399.674V647.561H431.019V610.989H467.591V579.643Z" fill="#4B92B9"/>
<path d="M512 266.248C474.55 266.248 444.082 296.715 444.082 334.165C444.082 371.615 474.552 402.083 512 402.083C549.448 402.083 579.918 371.615 579.918 334.165C579.918 296.715 549.45 266.248 512 266.248ZM512 370.737C491.836 370.737 475.428 354.333 475.428 334.165C475.428 314.001 491.834 297.594 512 297.594C532.164 297.594 548.572 313.999 548.572 334.165C548.572 354.329 532.164 370.737 512 370.737Z" fill="black"/>
<path d="M694.856 496.051C720.784 496.051 741.876 474.957 741.876 449.031C741.876 423.105 720.784 402.011 694.856 402.011C668.928 402.011 647.836 423.105 647.836 449.031C647.834 474.957 668.928 496.051 694.856 496.051ZM694.856 433.357C703.5 433.357 710.53 440.387 710.53 449.031C710.53 457.675 703.5 464.705 694.856 464.705C686.212 464.705 679.182 457.675 679.182 449.031C679.182 440.387 686.212 433.357 694.856 433.357Z" fill="black"/>
<path d="M862.039 496.051C887.967 496.051 909.059 474.957 909.059 449.031C909.059 423.105 887.967 402.011 862.039 402.011C836.111 402.011 815.02 423.105 815.02 449.031C815.02 474.957 836.111 496.051 862.039 496.051ZM862.039 433.357C870.683 433.357 877.713 440.387 877.713 449.031C877.713 457.675 870.683 464.705 862.039 464.705C853.395 464.705 846.365 457.675 846.365 449.031C846.365 440.387 853.397 433.357 862.039 433.357Z" fill="black"/>
<path d="M778.446 412.459C804.374 412.459 825.466 391.365 825.466 365.439C825.466 339.513 804.374 318.419 778.446 318.419C752.518 318.419 731.426 339.513 731.426 365.439C731.426 391.365 752.518 412.459 778.446 412.459ZM778.446 349.765C787.09 349.765 794.12 356.795 794.12 365.439C794.12 374.083 787.09 381.113 778.446 381.113C769.802 381.113 762.772 374.083 762.772 365.439C762.772 356.795 769.804 349.765 778.446 349.765Z" fill="black"/>
<path d="M778.446 485.601C752.518 485.601 731.426 506.695 731.426 532.621C731.426 558.547 752.518 579.641 778.446 579.641C804.374 579.641 825.466 558.547 825.466 532.621C825.468 506.695 804.376 485.601 778.446 485.601ZM778.446 548.295C769.802 548.295 762.772 541.265 762.772 532.621C762.772 523.977 769.802 516.947 778.446 516.947C787.09 516.947 794.12 523.977 794.12 532.621C794.12 541.263 787.09 548.295 778.446 548.295Z" fill="black"/>
<path d="M245.55 339.317C185.052 339.317 135.836 388.535 135.836 449.031C135.836 509.527 185.052 558.745 245.55 558.745C306.048 558.745 355.263 509.527 355.263 449.031C355.263 388.533 306.046 339.317 245.55 339.317ZM245.55 527.397C202.338 527.397 167.182 492.243 167.182 449.029C167.182 405.815 202.336 370.661 245.55 370.661C288.764 370.661 323.918 405.815 323.918 449.029C323.918 492.243 288.762 527.397 245.55 527.397Z" fill="black"/>
<path d="M245.552 391.561C213.862 391.561 188.082 417.343 188.082 449.031C188.082 480.719 213.862 506.501 245.552 506.501C277.242 506.501 303.022 480.719 303.022 449.031C303.022 417.343 277.24 391.561 245.552 391.561ZM245.552 475.153C231.148 475.153 219.43 463.435 219.43 449.031C219.43 434.627 231.148 422.909 245.552 422.909C259.956 422.909 271.674 434.627 271.674 449.031C271.674 463.433 259.956 475.153 245.552 475.153Z" fill="black"/>
<path d="M1024 449.035C1024 318.019 920.856 210.645 791.508 203.833V198.257C791.508 178.094 775.1 161.686 754.937 161.686H702.693C682.529 161.686 666.121 178.092 666.121 198.257V203.485H357.877V198.257C357.877 178.094 341.471 161.686 321.305 161.686H269.061C248.898 161.686 232.49 178.092 232.49 198.257V203.833C103.142 210.643 0 318.017 0 449.035C0 449.217 0.00599999 449.399 0.00599999 449.581H0V723.532C0 800.058 62.2679 862.316 138.804 862.316C196.702 862.316 249.036 825.818 269.035 771.498L299.569 688.611C328.487 682.137 355.973 670.457 380.983 653.867C391.073 659.811 402.815 663.237 415.347 663.237C447.401 663.237 474.321 640.909 481.421 610.997H542.583C549.683 640.913 576.601 663.237 608.653 663.237C621.185 663.237 632.929 659.809 643.017 653.867C668.027 670.457 695.513 682.137 724.431 688.611L754.963 771.494C774.962 825.818 827.298 862.316 885.194 862.316C961.73 862.316 1024 800.058 1024 723.532V449.579H1023.99C1023.99 449.397 1024 449.217 1024 449.035ZM697.469 198.255C697.469 195.373 699.813 193.031 702.693 193.031H754.937C757.817 193.031 760.161 195.373 760.161 198.255V203.483H697.467L697.469 198.255ZM269.061 193.031H321.305C324.185 193.031 326.529 195.373 326.529 198.255V203.483H263.835V198.255C263.835 195.373 266.181 193.031 269.061 193.031ZM239.62 760.662C224.138 802.712 183.624 830.966 138.804 830.966C79.5518 830.966 31.3459 782.77 31.3459 723.53V568.961C73.4479 643.863 153.68 694.585 245.55 694.585C251.814 694.585 258.035 694.336 264.221 693.874L239.62 760.662ZM415.345 631.887C395.181 631.887 378.773 615.481 378.773 595.315C378.773 575.149 395.179 558.743 415.345 558.743C435.509 558.743 451.917 575.149 451.917 595.315C451.917 615.481 435.511 631.887 415.345 631.887ZM542.579 579.647H481.421C474.327 549.729 447.403 527.397 415.347 527.397C377.897 527.397 347.429 557.865 347.429 595.315C347.429 608.593 351.275 620.983 357.887 631.461C324.185 652.299 285.681 663.239 245.554 663.239C127.44 663.239 31.3499 567.149 31.3499 449.035C31.3499 330.923 127.44 234.831 245.554 234.831H778.451C896.564 234.831 992.654 330.921 992.654 449.035C992.654 567.149 896.562 663.239 778.448 663.239C738.321 663.239 699.817 652.299 666.115 631.461C672.729 620.985 676.573 608.595 676.573 595.315C676.573 557.863 646.103 527.397 608.655 527.397C576.595 527.397 549.673 549.727 542.579 579.647ZM572.081 595.315C572.081 575.151 588.489 558.743 608.653 558.743C628.817 558.743 645.225 575.149 645.225 595.315C645.225 615.481 628.817 631.887 608.653 631.887C588.487 631.887 572.081 615.481 572.081 595.315ZM992.652 723.528C992.652 782.77 944.446 830.964 885.194 830.964C840.374 830.964 799.86 802.71 784.376 760.654L759.775 693.871C765.958 694.333 772.185 694.581 778.446 694.581C870.316 694.581 950.55 643.859 992.65 568.957V723.528H992.652Z" fill="black"/>
</svg>
