<svg width="1024" height="1024" viewBox="0 0 1024 1024" fill="none" xmlns="http://www.w3.org/2000/svg">
<g clip-path="url(#clip0_736_153)">
<path d="M1002.13 487.461V534.711C1002.13 548.17 991.201 559.071 977.742 559.071H910.031V463.1H977.742C991.201 463.1 1002.13 474.002 1002.13 487.461Z" fill="#5FCEFF"/>
<path d="M910.032 559.071V692.062C910.032 705.585 904.566 717.797 895.71 726.653C891.173 731.203 885.782 734.81 879.845 737.268C873.909 739.726 867.545 740.986 861.12 740.975C834.106 740.975 812.207 719.076 812.207 692.062V330.109C812.207 316.586 817.674 304.374 826.529 295.518C835.385 286.663 847.597 281.196 861.12 281.196C888.133 281.196 910.032 303.095 910.032 330.109V559.071Z" fill="#FFB578"/>
<path d="M788.102 559.071V753.027C788.102 766.518 782.635 778.762 773.78 787.618C769.243 792.168 763.851 795.776 757.915 798.234C751.978 800.692 745.614 801.951 739.189 801.94C712.175 801.94 690.309 780.041 690.309 753.027V269.144C690.309 255.653 695.775 243.409 704.631 234.554C713.454 225.698 725.666 220.231 739.189 220.231C766.203 220.231 788.102 242.13 788.102 269.144V559.071Z" fill="#FF4893"/>
<path d="M334.363 463.1H690.306V559.071H334.363V463.1Z" fill="#5FCEFF"/>
<path d="M334.364 559.071V753.027C334.364 780.041 312.466 801.94 285.452 801.94C271.961 801.94 259.717 796.473 250.861 787.618C246.314 783.079 242.708 777.687 240.25 771.751C237.792 765.815 236.531 759.452 236.539 753.027V269.144C236.539 242.13 258.438 220.231 285.452 220.231C298.943 220.231 311.187 225.698 320.042 234.554C324.59 239.092 328.196 244.484 330.653 250.42C333.111 256.356 334.372 262.719 334.364 269.144V559.071Z" fill="#FF4893"/>
<path d="M212.434 559.071V692.062C212.434 719.076 190.535 740.975 163.521 740.975C150.03 740.975 137.818 735.508 128.963 726.653C124.413 722.116 120.805 716.724 118.347 710.788C115.889 704.851 114.63 698.487 114.641 692.062V330.109C114.641 303.095 136.539 281.196 163.521 281.196C177.012 281.196 189.256 286.663 198.112 295.518C206.967 304.374 212.434 316.586 212.434 330.109V559.071Z" fill="#FFB578"/>
<path d="M114.64 463.1V559.071H49.4229C35.9639 559.071 25.0625 548.17 25.0625 534.711V487.461C25.0625 474.002 35.9639 463.1 49.4229 463.1H114.64Z" fill="#5FCEFF"/>
<path d="M690.305 581.449H334.362C328.427 581.449 322.735 579.092 318.538 574.895C314.342 570.698 311.984 565.006 311.984 559.071C311.984 553.136 314.342 547.444 318.538 543.247C322.735 539.05 328.427 536.693 334.362 536.693H690.305C696.241 536.693 701.933 539.05 706.129 543.247C710.326 547.444 712.684 553.136 712.684 559.071C712.684 565.006 710.326 570.698 706.129 574.895C701.933 579.092 696.241 581.449 690.305 581.449ZM812.203 581.449H788.099C782.164 581.449 776.472 579.092 772.275 574.895C768.078 570.698 765.72 565.006 765.72 559.071C765.72 553.136 768.078 547.444 772.275 543.247C776.472 539.05 782.164 536.693 788.099 536.693H812.203C818.138 536.693 823.83 539.05 828.027 543.247C832.224 547.444 834.582 553.136 834.582 559.071C834.582 565.006 832.224 570.698 828.027 574.895C823.83 579.092 818.138 581.449 812.203 581.449ZM977.739 581.449H910.029C904.093 581.449 898.401 579.092 894.205 574.895C890.008 570.698 887.65 565.006 887.65 559.071C887.65 553.136 890.008 547.444 894.205 543.247C898.401 539.05 904.093 536.693 910.029 536.693H977.739C978.851 536.693 979.753 535.804 979.753 534.711V487.46C979.751 487.198 979.697 486.939 979.595 486.697C979.493 486.455 979.344 486.236 979.157 486.052C978.97 485.868 978.748 485.723 978.505 485.624C978.262 485.526 978.001 485.476 977.739 485.478H910.029C904.093 485.478 898.401 483.121 894.205 478.924C890.008 474.727 887.65 469.035 887.65 463.1C887.65 457.165 890.008 451.473 894.205 447.276C898.401 443.079 904.093 440.722 910.029 440.722H977.739C1003.53 440.722 1024.51 461.687 1024.51 487.46V534.711C1024.51 560.481 1003.53 581.449 977.739 581.449ZM690.305 485.478H334.362C328.427 485.478 322.735 483.121 318.538 478.924C314.342 474.727 311.984 469.035 311.984 463.1C311.984 457.165 314.342 451.473 318.538 447.276C322.735 443.079 328.427 440.722 334.362 440.722H690.305C696.241 440.722 701.933 443.079 706.129 447.276C710.326 451.473 712.684 457.165 712.684 463.1C712.684 469.035 710.326 474.727 706.129 478.924C701.933 483.121 696.241 485.478 690.305 485.478ZM114.639 581.449H49.4223C23.6489 581.449 2.68359 560.481 2.68359 534.711V487.46C2.68359 461.687 23.6521 440.722 49.4223 440.722H114.639C120.574 440.722 126.266 443.079 130.463 447.276C134.66 451.473 137.017 457.165 137.017 463.1C137.017 469.035 134.66 474.727 130.463 478.924C126.266 483.121 120.574 485.478 114.639 485.478H49.4223C48.8966 485.478 48.3925 485.687 48.0208 486.059C47.6491 486.431 47.4402 486.935 47.4402 487.46V534.711C47.4402 535.804 48.329 536.693 49.4223 536.693H114.639C120.574 536.693 126.266 539.05 130.463 543.247C134.66 547.444 137.017 553.136 137.017 559.071C137.017 565.006 134.66 570.698 130.463 574.895C126.266 579.092 120.574 581.449 114.639 581.449Z" fill="#4F46A3"/>
<path d="M285.451 824.321C276.086 824.347 266.808 822.516 258.155 818.932C249.502 815.349 241.645 810.085 235.039 803.446C228.398 796.84 223.134 788.982 219.55 780.328C215.966 771.673 214.134 762.394 214.16 753.027V269.144C214.16 229.835 246.139 197.853 285.451 197.853C304.499 197.853 322.404 205.267 335.867 218.729C349.329 232.191 356.742 250.097 356.742 269.144V753.027C356.742 792.339 324.76 824.321 285.451 824.321ZM285.451 242.61C270.819 242.61 258.917 254.512 258.917 269.144V753.027C258.917 760.121 261.676 766.787 266.682 771.793C269.142 774.265 272.067 776.224 275.289 777.558C278.51 778.892 281.965 779.574 285.451 779.565C300.084 779.565 311.986 767.659 311.986 753.027V269.144C311.986 262.05 309.227 255.388 304.217 250.378C299.208 245.369 292.545 242.61 285.451 242.61Z" fill="#4F46A3"/>
<path d="M163.521 763.353C154.159 763.378 144.886 761.545 136.238 757.961C127.589 754.377 119.738 749.113 113.138 742.474C106.498 735.869 101.234 728.012 97.6503 719.359C94.067 710.706 92.2356 701.428 92.262 692.062V330.109C92.262 290.8 124.231 258.818 163.521 258.818C182.568 258.818 200.474 266.232 213.936 279.694C227.398 293.156 234.812 311.062 234.812 330.109V692.062C234.812 731.371 202.83 763.353 163.521 763.353ZM163.521 303.575C148.908 303.575 137.019 315.48 137.019 330.109V692.062C137.019 699.156 139.778 705.818 144.784 710.825C147.238 713.295 150.158 715.253 153.374 716.587C156.59 717.921 160.039 718.604 163.521 718.596C178.153 718.596 190.055 706.691 190.055 692.062V330.109C190.055 323.015 187.296 316.349 182.287 311.34C177.277 306.33 170.615 303.575 163.521 303.575ZM739.187 824.321C699.894 824.321 667.928 792.339 667.928 753.027V269.144C667.902 259.777 669.733 250.499 673.317 241.845C676.901 233.191 682.166 225.334 688.807 218.729C702.206 205.276 720.111 197.853 739.187 197.853C778.496 197.853 810.478 229.832 810.478 269.144V753.027C810.505 762.394 808.674 771.672 805.091 780.327C801.508 788.981 796.245 796.839 789.606 803.445C776.131 816.904 758.231 824.321 739.187 824.321ZM739.187 242.61C732.097 242.61 725.453 245.359 720.482 250.346C718.003 252.807 716.038 255.735 714.699 258.962C713.361 262.188 712.676 265.648 712.685 269.141V753.024C712.685 767.656 724.574 779.561 739.187 779.561C742.674 779.571 746.129 778.89 749.35 777.556C752.572 776.222 755.497 774.262 757.956 771.79C760.427 769.33 762.385 766.406 763.718 763.185C765.051 759.963 765.732 756.51 765.722 753.024V269.144C765.722 254.512 753.816 242.61 739.187 242.61Z" fill="#4F46A3"/>
<path d="M861.118 763.353C821.806 763.353 789.824 731.371 789.824 692.062V330.109C789.824 311.059 797.238 293.153 810.703 279.69C817.309 273.05 825.166 267.787 833.82 264.203C842.474 260.62 851.752 258.788 861.118 258.815C900.427 258.815 932.409 290.797 932.409 330.106V692.059C932.409 711.109 924.996 729.015 911.53 742.474C898.075 755.94 880.169 763.353 861.118 763.353ZM861.118 303.575C857.632 303.564 854.179 304.245 850.958 305.578C847.737 306.911 844.812 308.869 842.353 311.34C839.88 313.799 837.921 316.724 836.587 319.946C835.253 323.168 834.571 326.622 834.581 330.109V692.062C834.581 706.691 846.486 718.597 861.118 718.597C864.604 718.608 868.058 717.927 871.279 716.594C874.499 715.26 877.423 713.3 879.881 710.828C882.354 708.37 884.314 705.445 885.648 702.224C886.982 699.003 887.663 695.549 887.653 692.062V330.109C887.653 315.48 875.751 303.575 861.118 303.575Z" fill="#4F46A3"/>
</g>
<defs>
<clipPath id="clip0_736_153">
<rect width="1024" height="1024" fill="white"/>
</clipPath>
</defs>
</svg>
