<svg width="1024" height="1024" viewBox="0 0 1024 1024" fill="none" xmlns="http://www.w3.org/2000/svg">
<path d="M512 112C291.088 112 112 291.088 112 512H912C912 291.088 732.912 112 512 112Z" fill="#FFC865"/>
<path d="M512 912C732.912 912 912 732.912 912 512H112C112 732.912 291.088 912 512 912Z" fill="#BE9148"/>
<path d="M418.033 679.712C352.721 718.256 252.801 759.888 217.953 783.088C291.041 862.32 395.697 912 512.001 912C526.833 912 541.457 911.136 555.873 909.552C583.025 853.392 611.937 736.192 612.753 719.984C596.737 714.128 418.033 679.712 418.033 679.712Z" fill="#644638"/>
<path d="M725.522 301.296C723.938 284.432 720.706 267.232 708.69 254.416C689.09 233.504 686.274 261.696 685.778 278.288C685.538 286.176 678.066 330.912 692.386 330.224C710.706 329.312 727.378 321.136 725.522 301.296Z" fill="#EFEAE0"/>
<path d="M641.248 40.0158C628.912 48.6238 630.752 72.8959 636.704 84.1599C650.992 111.248 672.016 128 668.24 159.744C664.8 188.72 643.104 260 624.032 237.92C608.032 246.064 584.976 244.128 576.56 216.512C569.104 182.224 580.08 129.536 558.928 100.768C528.752 59.7278 496.656 40.7518 480.64 24.9438C476.944 29.2478 475.392 35.8878 477.904 44.9758C480.864 55.6958 524.928 96.6878 532.864 104.544C543.904 115.472 552.016 121.312 552.32 138.176C552.608 153.888 551.424 214.448 544.528 229.808C540.72 245.744 525.552 279.84 506.608 258.96C494.8 245.936 489.36 229.12 482.624 213.248C474.752 194.672 460.064 170.8 443.68 159.04C440.048 165.232 433.296 169.632 424.352 167.776L302.4 126.928C302.4 126.928 293.024 145.504 336.336 167.632C359.84 179.648 385.264 187.504 408.688 199.28C427.248 208.592 439.68 239.92 444.304 259.104C451.504 289.008 426.272 285.504 410 278.496C393.872 274.16 366.416 255.328 346.192 250.064C344.576 255.552 340.704 260.4 334.72 262.656L205.2 269.904C205.2 269.904 199.184 284.992 242.72 291.76C271.12 296.176 304.048 280.24 329.52 298.32C402.832 333.632 350.496 406.208 373.504 484.56C380.832 509.52 394.256 531.968 405.2 555.392C405.2 555.392 418.224 565.488 418.224 707.552C466.16 727.616 434.88 741.776 491.392 749.264C490.704 749.04 470.784 508.256 471.44 508.4C466.48 452.368 569.808 363.024 656.16 373.648C648.56 310.352 656.56 281.696 668.544 269.776C718.48 140.864 714.768 175.04 641.248 40.0158Z" fill="#018273"/>
<path d="M511.631 25.488C535.631 42.704 558.927 60.896 582.927 78.096C597.743 88.72 599.871 99.312 603.999 115.808C614.127 156.32 621.151 234.576 624.047 237.92C608.047 246.064 584.991 244.128 576.575 216.512C569.119 182.224 580.095 129.536 558.943 100.768C527.967 58.64 496.159 40.816 480.511 24.8C486.831 17.296 499.935 17.104 511.631 25.488ZM334.719 262.672C340.703 260.4 344.575 255.568 346.191 250.08C336.447 247.536 326.351 246.512 316.271 246.336C302.367 246.096 236.607 249.584 223.263 253.504C216.527 255.488 206.383 262.064 205.199 269.936L334.719 262.672ZM302.047 126.72L424.383 167.776C433.327 169.632 440.079 165.232 443.711 159.04C446.943 161.36 422.815 148.208 403.855 142.88C383.167 137.056 362.303 131.792 341.887 125.04C309.999 114.496 302.047 126.72 302.047 126.72ZM602.271 529.76C595.279 546.032 613.759 720.24 613.759 720.24C595.183 711.008 523.007 749.072 490.879 749.072C490.831 748.512 471.455 508.4 471.455 508.4C466.479 452.368 569.823 363.024 656.175 373.648C648.575 310.368 656.559 281.712 668.543 269.808C718.479 140.864 714.815 175.072 641.279 39.984C643.279 37.488 647.279 36.24 654.079 36.752C670.239 36.752 721.215 129.904 721.215 129.904C729.855 144.08 726.383 151.856 723.535 166.48L704.911 250.8C693.839 241.616 689.199 250.656 687.231 262.24C686.319 267.568 685.967 273.408 685.823 278.272C685.583 286.16 678.111 330.896 692.415 330.208C707.935 329.44 722.159 323.36 725.055 309.488L745.295 365.744C754.655 416.432 670.575 493.12 602.271 529.76Z" fill="#00B3AA"/>
</svg>
