<svg width="1024" height="1024" viewBox="0 0 1024 1024" fill="none" xmlns="http://www.w3.org/2000/svg">
<path d="M511.999 1024C403.183 1024 302.661 959.304 228.95 841.824C163.486 737.492 125.938 602.29 125.938 470.884C125.938 350.814 156.802 246.88 215.196 170.314C283.038 81.3598 385.669 34.3398 511.999 34.3398C638.327 34.3398 740.962 81.3598 808.806 170.316C867.196 246.88 898.06 350.816 898.06 470.886C898.06 602.29 860.513 737.492 795.049 841.826C721.34 959.304 620.815 1024 511.999 1024Z" fill="#F3D49D"/>
<path d="M511.996 1024C511.996 915.772 511.996 190.008 511.996 34.3398C638.324 34.3398 740.958 81.3598 808.802 170.316C867.192 246.88 898.056 350.816 898.056 470.886C898.056 602.29 860.51 737.492 795.046 841.826C721.336 959.304 620.812 1024 511.996 1024Z" fill="#EEBF70"/>
<path d="M663.85 326.118H596.544H427.454H360.148V0H663.85V326.118Z" fill="#8B8B8B"/>
<path d="M663.852 326.118H630.2H545.66H512.008V0H663.852V326.118Z" fill="#444444"/>
<path d="M511.997 194.73C535.905 194.73 555.287 175.349 555.287 151.44C555.287 127.532 535.905 108.15 511.997 108.15C488.089 108.15 468.707 127.532 468.707 151.44C468.707 175.349 488.089 194.73 511.997 194.73Z" fill="#F0C838"/>
<path d="M555.29 151.438C555.29 175.346 535.908 194.728 512 194.728C512 163.058 512 128.642 512 108.148C535.908 108.15 555.29 127.53 555.29 151.438Z" fill="#E79C25"/>
<path d="M1005.01 716.196H18.9883V292.47H1005.01V716.196H1005.01Z" fill="#6F6F6F"/>
<path d="M1005.01 716.196H512.008V292.47H1005.01V716.196Z" fill="#444444"/>
<path d="M218.738 504.334C218.738 469.656 246.852 441.542 281.53 441.542H742.464C777.142 441.542 805.256 469.656 805.256 504.334C805.256 539.012 777.142 567.126 742.464 567.126H281.53C246.852 567.124 218.738 539.012 218.738 504.334Z" fill="#92E5EA"/>
<path d="M742.464 441.542H511.996V567.124H742.462C777.14 567.124 805.254 539.01 805.254 504.332C805.254 469.656 777.142 441.542 742.464 441.542Z" fill="#79BBBC"/>
<path d="M612.931 790.26H411.047V857.042H612.931V790.26Z" fill="#6F6F6F"/>
<path d="M612.926 790.26H511.996V857.042H612.926V790.26Z" fill="#444444"/>
</svg>
