<svg width="1024" height="1024" viewBox="0 0 1024 1024" fill="none" xmlns="http://www.w3.org/2000/svg">
<path d="M284.479 325.84C279.919 374.48 276.719 460.56 305.439 497.2C305.439 497.2 291.919 402.64 413.119 284C461.919 236.24 473.199 171.28 456.159 122.56C446.479 94.9602 428.799 72.1602 413.439 56.2402C404.479 46.8802 411.359 31.4402 424.399 32.0002C503.279 35.5202 631.119 57.4402 685.439 193.76C709.279 253.6 711.039 315.44 699.679 378.32C692.479 418.48 666.879 507.76 725.279 518.72C766.959 526.56 787.119 493.44 796.159 469.6C799.919 459.68 812.959 457.2 819.999 465.12C890.399 545.2 896.399 639.52 881.839 720.72C853.679 877.68 694.719 991.92 536.799 991.92C339.519 991.92 182.479 879.04 141.759 674.72C125.359 592.24 133.679 429.04 260.879 313.84C270.319 305.2 285.759 312.88 284.479 325.84Z" fill="url(#paint0_radial_733_31)"/>
<path d="M608.882 619.36C536.162 525.76 568.722 418.96 586.562 376.4C588.962 370.8 582.562 365.52 577.522 368.96C546.242 390.24 482.162 440.32 452.322 510.8C411.922 606.08 414.802 652.72 438.722 709.68C453.122 744 436.402 751.28 428.002 752.56C419.842 753.84 412.322 748.4 406.322 742.72C389.061 726.149 376.76 705.094 370.802 681.92C369.522 676.96 363.042 675.6 360.082 679.68C337.682 710.64 326.082 760.32 325.522 795.44C323.762 904 413.442 992 521.922 992C658.642 992 758.242 840.8 679.682 714.4C656.882 677.6 635.442 653.52 608.882 619.36Z" fill="url(#paint1_radial_733_31)"/>
<defs>
<radialGradient id="paint0_radial_733_31" cx="0" cy="0" r="1" gradientUnits="userSpaceOnUse" gradientTransform="translate(497.725 994.407) rotate(-179.751) scale(564.701 926.562)">
<stop offset="0.314" stop-color="#FF9800"/>
<stop offset="0.662" stop-color="#FF6D00"/>
<stop offset="0.972" stop-color="#F44336"/>
</radialGradient>
<radialGradient id="paint1_radial_733_31" cx="0" cy="0" r="1" gradientUnits="userSpaceOnUse" gradientTransform="translate(529.441 432.467) rotate(90.5787) scale(590.851 444.66)">
<stop offset="0.214" stop-color="#FFF176"/>
<stop offset="0.328" stop-color="#FFF27D"/>
<stop offset="0.487" stop-color="#FFF48F"/>
<stop offset="0.672" stop-color="#FFF7AD"/>
<stop offset="0.793" stop-color="#FFF9C4"/>
<stop offset="0.822" stop-color="#FFF8BD" stop-opacity="0.804"/>
<stop offset="0.863" stop-color="#FFF6AB" stop-opacity="0.529"/>
<stop offset="0.91" stop-color="#FFF38D" stop-opacity="0.209"/>
<stop offset="0.941" stop-color="#FFF176" stop-opacity="0"/>
</radialGradient>
</defs>
</svg>
