<svg width="1024" height="1024" viewBox="0 0 1024 1024" fill="none" xmlns="http://www.w3.org/2000/svg">
<path d="M386.198 899.3H109.898C67.3984 899.3 32.8984 864.8 32.8984 822.3V545.9C32.8984 503.4 67.3984 468.9 109.898 468.9H386.298C428.798 468.9 463.298 503.4 463.298 545.9V822.3C463.298 864.8 428.798 899.3 386.198 899.3Z" fill="#F9B400"/>
<path d="M386.198 914.3H109.898C59.1984 914.3 17.8984 873 17.8984 822.3V545.9C17.8984 495.2 59.1984 453.9 109.898 453.9H386.298C436.998 453.9 478.298 495.2 478.298 545.9V822.3C478.298 873 436.998 914.3 386.198 914.3ZM109.898 483.9C75.6984 483.9 47.8984 511.7 47.8984 545.9V822.3C47.8984 856.5 75.6984 884.3 109.898 884.3H386.298C420.498 884.3 448.298 856.5 448.298 822.3V545.9C448.298 511.7 420.498 483.9 386.298 483.9H109.898Z" fill="black"/>
<path d="M213.102 684.1C213.102 688.696 214.007 693.248 215.766 697.494C217.525 701.74 220.103 705.599 223.353 708.849C226.603 712.099 230.461 714.677 234.708 716.436C238.954 718.195 243.505 719.1 248.102 719.1C252.698 719.1 257.249 718.195 261.495 716.436C265.742 714.677 269.6 712.099 272.85 708.849C276.1 705.599 278.678 701.74 280.437 697.494C282.196 693.248 283.102 688.696 283.102 684.1C283.102 674.818 279.414 665.915 272.85 659.351C266.287 652.788 257.384 649.1 248.102 649.1C238.819 649.1 229.917 652.788 223.353 659.351C216.789 665.915 213.102 674.818 213.102 684.1Z" fill="#FB0202"/>
<path d="M248.102 734.1C220.502 734.1 198.102 711.7 198.102 684.1C198.102 656.5 220.502 634.1 248.102 634.1C275.702 634.1 298.102 656.5 298.102 684.1C298.102 711.7 275.702 734.1 248.102 734.1ZM248.102 664C237.102 664 228.102 673 228.102 684C228.102 695 237.102 704 248.102 704C259.102 704 268.102 695 268.102 684C268.102 673 259.102 664 248.102 664Z" fill="black"/>
<path d="M111.199 567.8C111.199 577.082 114.887 585.985 121.45 592.549C128.014 599.112 136.917 602.8 146.199 602.8C155.482 602.8 164.384 599.112 170.948 592.549C177.512 585.985 181.199 577.082 181.199 567.8C181.199 558.517 177.512 549.615 170.948 543.051C164.384 536.487 155.482 532.8 146.199 532.8C136.917 532.8 128.014 536.487 121.45 543.051C114.887 549.615 111.199 558.517 111.199 567.8Z" fill="#FB0202"/>
<path d="M146.199 617.8C118.599 617.8 96.1992 595.4 96.1992 567.8C96.1992 540.2 118.599 517.8 146.199 517.8C173.799 517.8 196.199 540.2 196.199 567.8C196.199 595.4 173.699 617.8 146.199 617.8ZM146.199 547.8C135.199 547.8 126.199 556.8 126.199 567.8C126.199 578.8 135.199 587.8 146.199 587.8C157.199 587.8 166.199 578.8 166.199 567.8C166.199 556.8 157.199 547.8 146.199 547.8Z" fill="black"/>
<path d="M315 567.8C315 577.082 318.687 585.985 325.251 592.549C331.815 599.112 340.717 602.8 350 602.8C359.283 602.8 368.185 599.112 374.749 592.549C381.313 585.985 385 577.082 385 567.8C385 558.517 381.313 549.615 374.749 543.051C368.185 536.487 359.283 532.8 350 532.8C340.717 532.8 331.815 536.487 325.251 543.051C318.687 549.615 315 558.517 315 567.8Z" fill="#FB0202"/>
<path d="M350 617.8C322.4 617.8 300 595.4 300 567.8C300 540.2 322.4 517.8 350 517.8C377.6 517.8 400 540.2 400 567.8C400 595.4 377.6 617.8 350 617.8ZM350 547.8C339 547.8 330 556.8 330 567.8C330 578.8 339 587.8 350 587.8C361 587.8 370 578.8 370 567.8C370 556.8 361 547.8 350 547.8Z" fill="black"/>
<path d="M111.199 800.3C111.199 809.582 114.887 818.485 121.45 825.049C128.014 831.612 136.917 835.3 146.199 835.3C155.482 835.3 164.384 831.612 170.948 825.049C177.512 818.485 181.199 809.582 181.199 800.3C181.199 791.017 177.512 782.115 170.948 775.551C164.384 768.987 155.482 765.3 146.199 765.3C136.917 765.3 128.014 768.987 121.45 775.551C114.887 782.115 111.199 791.017 111.199 800.3Z" fill="#FB0202"/>
<path d="M146.199 850.3C118.599 850.3 96.1992 827.9 96.1992 800.3C96.1992 772.7 118.599 750.3 146.199 750.3C173.799 750.3 196.199 772.7 196.199 800.3C196.199 827.9 173.699 850.3 146.199 850.3ZM146.199 780.3C135.199 780.3 126.199 789.3 126.199 800.3C126.199 811.3 135.199 820.3 146.199 820.3C157.199 820.3 166.199 811.3 166.199 800.3C166.199 789.3 157.199 780.3 146.199 780.3Z" fill="black"/>
<path d="M315 800.3C315 809.582 318.687 818.485 325.251 825.049C331.815 831.612 340.717 835.3 350 835.3C359.283 835.3 368.185 831.612 374.749 825.049C381.313 818.485 385 809.582 385 800.3C385 791.017 381.313 782.115 374.749 775.551C368.185 768.987 359.283 765.3 350 765.3C340.717 765.3 331.815 768.987 325.251 775.551C318.687 782.115 315 791.017 315 800.3Z" fill="#FB0202"/>
<path d="M350 850.3C322.4 850.3 300 827.9 300 800.3C300 772.7 322.4 750.3 350 750.3C377.6 750.3 400 772.7 400 800.3C400 827.9 377.6 850.3 350 850.3ZM350 780.3C339 780.3 330 789.3 330 800.3C330 811.3 339 820.3 350 820.3C361 820.3 370 811.3 370 800.3C370 789.3 361 780.3 350 780.3Z" fill="black"/>
<path d="M932 500.3L691.2 635.9C654.1 656.8 607.2 643.6 586.3 606.6L450.7 365.8C429.8 328.7 443 281.8 480 260.9L720.8 125.3C757.9 104.4 804.8 117.6 825.7 154.6L961.3 395.4C982.2 432.5 969 479.5 932 500.3Z" fill="#F9B400"/>
<path d="M653.499 660.8C621.299 660.8 589.999 643.9 573.199 613.9L437.599 373.1C425.499 351.7 422.499 326.8 429.199 303.2C435.899 279.6 451.299 259.8 472.699 247.8L713.499 112.2C734.899 100.1 759.799 97.1002 783.399 103.8C807.099 110.4 826.799 125.9 838.799 147.3L974.399 388.1C986.499 409.5 989.499 434.4 982.799 458C976.199 481.7 960.699 501.4 939.299 513.4L698.499 649C684.299 657 668.799 660.8 653.499 660.8ZM758.499 130.4C747.999 130.4 737.599 133.1 728.199 138.4L487.399 273.9C472.999 282 462.599 295.3 458.099 311.2C453.599 327.1 455.699 343.9 463.799 358.3L599.399 599.1C616.199 628.9 654.099 639.5 683.899 622.7L924.699 487.1C939.099 479 949.499 465.7 953.999 449.8C958.499 433.8 956.399 417.1 948.299 402.7L812.699 162C804.599 147.6 791.299 137.2 775.399 132.7C769.799 131.1 764.099 130.4 758.499 130.4Z" fill="black"/>
<path d="M671 380.6C671 389.883 674.688 398.785 681.251 405.349C687.815 411.913 696.717 415.6 706 415.6C715.283 415.6 724.185 411.913 730.749 405.349C737.312 398.785 741 389.883 741 380.6C741 371.318 737.312 362.415 730.749 355.851C724.185 349.288 715.283 345.6 706 345.6C696.717 345.6 687.815 349.288 681.251 355.851C674.688 362.415 671 371.318 671 380.6Z" fill="#FB0202"/>
<path d="M706.101 430.7C701.601 430.7 697.001 430.1 692.601 428.8C679.701 425.2 669.001 416.8 662.501 405.2C655.901 393.6 654.301 380.1 657.901 367.2C661.501 354.3 669.901 343.6 681.501 337.1C693.101 330.5 706.601 328.9 719.501 332.5C732.401 336.1 743.101 344.5 749.601 356.1C756.201 367.7 757.801 381.2 754.201 394.1C750.601 407 742.201 417.7 730.601 424.2C722.901 428.5 714.501 430.7 706.101 430.7ZM706.001 360.6C702.601 360.6 699.201 361.5 696.201 363.2C691.501 365.8 688.201 370.1 686.701 375.3C685.301 380.5 685.901 385.9 688.501 390.5C691.101 395.2 695.401 398.5 700.601 400C705.801 401.4 711.201 400.8 715.801 398.2C720.501 395.6 723.801 391.3 725.301 386.1C726.701 380.9 726.101 375.5 723.501 370.9C720.901 366.2 716.601 362.9 711.401 361.4C709.601 360.8 707.801 360.6 706.001 360.6Z" fill="black"/>
<path d="M525.199 329.3C525.199 338.582 528.887 347.485 535.45 354.049C542.014 360.612 550.917 364.3 560.199 364.3C569.482 364.3 578.384 360.612 584.948 354.049C591.512 347.485 595.199 338.582 595.199 329.3C595.199 320.017 591.512 311.115 584.948 304.551C578.384 297.987 569.482 294.3 560.199 294.3C550.917 294.3 542.014 297.987 535.45 304.551C528.887 311.115 525.199 320.017 525.199 329.3Z" fill="#FB0202"/>
<path d="M560.201 379.3C542.701 379.3 525.701 370.1 516.501 353.8C503.001 329.8 511.501 299.2 535.601 285.7C559.601 272.2 590.201 280.7 603.701 304.8C617.201 328.8 608.701 359.4 584.601 372.9C577.001 377.3 568.501 379.3 560.201 379.3ZM560.101 309.3C556.801 309.3 553.401 310.1 550.301 311.9C540.701 317.3 537.301 329.6 542.701 339.2C548.101 348.8 560.401 352.2 570.001 346.8C579.601 341.4 583.001 329.1 577.601 319.5C573.901 313 567.101 309.3 560.101 309.3Z" fill="black"/>
<path d="M816.801 431.9C816.801 441.182 820.488 450.085 827.052 456.649C833.616 463.212 842.518 466.9 851.801 466.9C861.083 466.9 869.986 463.212 876.55 456.649C883.113 450.085 886.801 441.182 886.801 431.9C886.801 422.617 883.113 413.715 876.55 407.151C869.986 400.587 861.083 396.9 851.801 396.9C842.518 396.9 833.616 400.587 827.052 407.151C820.488 413.715 816.801 422.617 816.801 431.9Z" fill="#FB0202"/>
<path d="M851.901 481.9C834.401 481.9 817.401 472.7 808.201 456.4C794.701 432.4 803.201 401.8 827.301 388.3C851.301 374.8 881.901 383.3 895.401 407.4C908.901 431.4 900.401 462 876.301 475.5C868.601 479.9 860.201 481.9 851.901 481.9ZM851.801 411.9C848.501 411.9 845.101 412.7 842.001 414.5C832.401 419.9 829.001 432.2 834.401 441.8C839.801 451.4 852.101 454.8 861.701 449.4C871.301 444 874.701 431.7 869.301 422.1C865.601 415.5 858.801 411.9 851.801 411.9Z" fill="black"/>
</svg>
