<svg width="1024" height="1024" viewBox="0 0 1024 1024" fill="none" xmlns="http://www.w3.org/2000/svg">
<g clip-path="url(#clip0_735_77)">
<path fill-rule="evenodd" clip-rule="evenodd" d="M428.441 681.564L433.743 684.279C437.371 686.169 440.11 689.412 441.365 693.306C442.62 697.2 442.291 701.432 440.448 705.085L327.19 929.112C325.975 931.431 325.382 934.025 325.467 936.642C325.552 939.259 326.313 941.809 327.675 944.044L361.039 1000.59C362.705 1003.35 363.46 1006.56 363.195 1009.78C362.93 1012.99 361.66 1016.04 359.564 1018.49C357.533 1020.98 354.762 1022.74 351.655 1023.54C348.548 1024.33 345.269 1024.11 342.296 1022.91C296.373 1004.76 252.392 982.041 211.02 955.086C208.298 953.359 206.191 950.817 205 947.821C203.809 944.825 203.595 941.53 204.389 938.406C205.107 935.27 206.802 932.442 209.23 930.331C211.657 928.22 214.692 926.934 217.898 926.659L282.273 920.707C284.872 920.503 287.372 919.622 289.525 918.152C291.677 916.682 293.407 914.674 294.543 912.327L407.801 688.326C408.709 686.523 409.964 684.917 411.494 683.601C413.024 682.284 414.799 681.283 416.717 680.655C418.635 680.027 420.658 679.784 422.671 679.94C424.683 680.096 426.645 680.649 428.443 681.566" fill="#465DA9"/>
<path fill-rule="evenodd" clip-rule="evenodd" d="M785.586 276.268L668.398 216.045L549.209 154.804C545.876 153.083 542.025 152.653 538.394 153.597C534.764 154.541 531.61 156.793 529.537 159.92L412.077 334.689C411.983 334.846 411.899 334.949 411.797 335.106C332.317 445.632 312.347 543.906 351.887 629.928C352.046 630.267 352.193 630.554 352.375 630.893C367.758 658.603 389.287 682.419 415.307 700.514C415.898 700.956 416.53 701.341 417.195 701.663L424.198 705.265C424.846 705.615 425.526 705.903 426.228 706.127C457.647 716.908 488.602 720.388 519.092 716.568C519.468 716.515 519.789 716.464 520.159 716.386C612.438 698.087 679.587 624.055 721.606 494.29C721.661 494.107 721.706 493.976 721.765 493.82L793.039 295.296C794.33 291.759 794.284 287.873 792.909 284.368C791.535 280.863 788.927 277.982 785.576 276.265" fill="#F9B317"/>
<path fill-rule="evenodd" clip-rule="evenodd" d="M398.719 353.978C473.939 371.102 541.62 363.314 601.763 330.615C652.863 297.541 715.566 284.749 791.912 298.481L793.049 295.296C794.341 291.759 794.295 287.873 792.92 284.368C791.546 280.863 788.937 277.981 785.586 276.265L668.396 216.043L549.203 154.802C545.87 153.081 542.018 152.652 538.388 153.596C534.757 154.54 531.603 156.791 529.529 159.917L412.073 334.687L411.797 335.104C407.241 341.422 402.883 347.738 398.719 353.978Z" fill="#465DA9"/>
<path fill-rule="evenodd" clip-rule="evenodd" d="M687.352 512.147C624.132 632.88 545.511 694.372 451.486 696.625H450.406C447.588 696.494 444.781 696.286 441.977 696.024C430.193 694.964 418.53 692.823 407.138 689.628C404.019 688.766 400.91 687.801 397.805 686.783C400.272 688.923 402.801 691.012 405.395 693.074C408.604 695.605 411.909 698.111 415.31 700.513L417.197 701.663L424.198 705.265L426.227 706.127C430.173 707.483 434.111 708.711 438.042 709.833C464.319 717.574 491.901 719.866 519.096 716.568C519.474 716.515 519.791 716.464 520.161 716.386C612.44 698.086 679.59 624.054 721.61 494.289L721.769 493.819L763.797 376.767L687.585 511.726L687.356 512.143" fill="#DB8E19"/>
<path fill-rule="evenodd" clip-rule="evenodd" d="M411.853 456.959C413.848 456.63 415.887 456.697 417.856 457.158C419.824 457.619 421.681 458.465 423.322 459.646C424.962 460.828 426.353 462.321 427.414 464.042C428.475 465.762 429.186 467.676 429.505 469.672C430.182 473.704 429.235 477.841 426.87 481.177C424.506 484.514 420.916 486.778 416.887 487.474C414.891 487.799 412.85 487.727 410.882 487.262C408.914 486.798 407.056 485.949 405.416 484.766C403.776 483.583 402.385 482.088 401.324 480.366C400.262 478.645 399.55 476.731 399.229 474.735C398.552 470.704 399.5 466.569 401.867 463.237C404.233 459.904 407.825 457.646 411.853 456.957" fill="white"/>
<path fill-rule="evenodd" clip-rule="evenodd" d="M458.733 571.43C460.727 571.1 462.767 571.167 464.735 571.629C466.703 572.09 468.561 572.935 470.201 574.116C471.842 575.298 473.232 576.792 474.293 578.512C475.355 580.233 476.065 582.146 476.385 584.142C477.062 588.175 476.114 592.313 473.749 595.649C471.383 598.985 467.793 601.249 463.763 601.944C461.769 602.272 459.729 602.202 457.762 601.74C455.795 601.278 453.938 600.433 452.298 599.252C450.659 598.071 449.268 596.578 448.206 594.859C447.144 593.139 446.432 591.227 446.111 589.232C445.429 585.198 446.375 581.059 448.741 577.721C451.107 574.384 454.701 572.121 458.733 571.43Z" fill="white"/>
<path fill-rule="evenodd" clip-rule="evenodd" d="M551.605 511.937C553.601 511.61 555.643 511.68 557.612 512.144C559.581 512.608 561.439 513.456 563.08 514.639C564.721 515.823 566.111 517.319 567.172 519.041C568.233 520.764 568.944 522.679 569.263 524.677C569.94 528.71 568.992 532.848 566.626 536.184C564.26 539.521 560.669 541.784 556.639 542.479C554.643 542.804 552.602 542.732 550.634 542.267C548.665 541.802 546.808 540.954 545.168 539.771C543.528 538.587 542.137 537.092 541.075 535.371C540.013 533.65 539.301 531.736 538.979 529.74C538.302 525.706 539.25 521.568 541.617 518.232C543.983 514.895 547.574 512.632 551.605 511.937Z" fill="white"/>
<path fill-rule="evenodd" clip-rule="evenodd" d="M607.134 452.447C608.745 452.186 610.395 452.575 611.719 453.53C613.044 454.484 613.935 455.926 614.198 457.537C614.335 458.337 614.313 459.156 614.133 459.947C613.953 460.738 613.619 461.486 613.15 462.148C612.681 462.81 612.085 463.373 611.399 463.804C610.712 464.236 609.946 464.528 609.146 464.664C608.348 464.796 607.531 464.769 606.743 464.584C605.955 464.4 605.211 464.061 604.555 463.588C603.898 463.115 603.342 462.517 602.917 461.828C602.492 461.139 602.208 460.373 602.081 459.573C601.811 457.959 602.192 456.304 603.138 454.969C604.085 453.634 605.521 452.727 607.134 452.447Z" fill="white"/>
<path fill-rule="evenodd" clip-rule="evenodd" d="M683.867 370.582C685.463 370.321 687.095 370.378 688.669 370.748C690.243 371.119 691.728 371.796 693.04 372.742C694.352 373.688 695.464 374.883 696.313 376.26C697.162 377.636 697.731 379.166 697.987 380.763C698.529 383.99 697.772 387.301 695.88 389.972C693.989 392.643 691.117 394.456 687.893 395.016C686.297 395.277 684.665 395.22 683.091 394.85C681.516 394.479 680.031 393.802 678.719 392.856C677.407 391.91 676.295 390.715 675.446 389.338C674.597 387.962 674.027 386.432 673.771 384.835C673.225 381.607 673.982 378.294 675.874 375.622C677.767 372.951 680.641 371.138 683.867 370.582Z" fill="white"/>
<path fill-rule="evenodd" clip-rule="evenodd" d="M512.798 408.67C513.996 408.475 515.221 408.518 516.402 408.797C517.583 409.076 518.698 409.586 519.682 410.296C520.666 411.007 521.5 411.904 522.137 412.938C522.773 413.971 523.2 415.12 523.392 416.319C523.792 418.738 523.221 421.216 521.803 423.216C520.384 425.215 518.234 426.574 515.819 426.995C514.621 427.19 513.396 427.147 512.214 426.868C511.033 426.589 509.918 426.08 508.934 425.369C507.949 424.659 507.115 423.761 506.478 422.727C505.841 421.694 505.415 420.544 505.223 419.346C504.815 416.926 505.383 414.443 506.803 412.441C508.223 410.44 510.379 409.083 512.798 408.67Z" fill="white"/>
<path fill-rule="evenodd" clip-rule="evenodd" d="M121.354 627.972L175.817 667.23C178.221 668.983 179.84 671.61 180.324 674.545C180.807 677.48 180.118 680.488 178.403 682.919L139.464 737.816C138.617 739.013 137.542 740.031 136.3 740.811C135.058 741.591 133.674 742.118 132.228 742.36C130.782 742.603 129.302 742.557 127.873 742.225C126.445 741.893 125.096 741.281 123.905 740.426L69.4404 701.166C67.0363 699.414 65.4173 696.787 64.9327 693.852C64.4481 690.917 65.1368 687.909 66.8502 685.477L105.789 630.58C106.637 629.383 107.712 628.365 108.954 627.585C110.196 626.805 111.58 626.279 113.027 626.036C114.473 625.794 115.953 625.84 117.382 626.172C118.81 626.504 120.159 627.115 121.35 627.97" fill="#43BB4E"/>
<path fill-rule="evenodd" clip-rule="evenodd" d="M148.584 647.601C148.667 680.963 131.366 705.362 96.6797 720.798L123.907 740.43C125.098 741.285 126.447 741.896 127.875 742.228C129.304 742.56 130.784 742.606 132.23 742.364C133.676 742.121 135.06 741.595 136.302 740.815C137.544 740.035 138.619 739.017 139.466 737.82L178.401 682.922C180.119 680.492 180.811 677.484 180.327 674.548C179.843 671.611 178.222 668.984 175.815 667.234L148.586 647.603" fill="#32A940"/>
<path fill-rule="evenodd" clip-rule="evenodd" d="M862.883 135.679C865.487 121.362 870.995 107.73 879.067 95.6219C887.139 83.5139 897.604 73.1865 909.818 65.2759C911.15 64.4332 912.193 63.2047 912.809 61.7542C913.425 60.3038 913.584 58.7001 913.266 57.1567C912.986 55.6083 912.239 54.1828 911.124 53.0721C910.01 51.9614 908.582 51.2189 907.032 50.9446C892.766 48.2806 879.202 42.7056 867.186 34.5674C855.17 26.4291 844.96 15.9022 837.192 3.64335C836.373 2.30402 835.159 1.25132 833.717 0.629773C832.275 0.00822379 830.676 -0.151579 829.14 0.172221C827.596 0.459371 826.178 1.21457 825.077 2.33535C823.977 3.45612 823.249 4.88811 822.99 6.43718C820.387 20.7552 814.878 34.3883 806.805 46.4966C798.732 58.6048 788.265 68.9317 776.049 76.8408C774.719 77.6841 773.676 78.9128 773.061 80.3632C772.446 81.8136 772.287 83.4169 772.606 84.9599C772.884 86.5087 773.632 87.9347 774.746 89.0456C775.861 90.1564 777.29 90.8986 778.839 91.1721C793.107 93.8405 806.672 99.4199 818.688 107.563C830.704 115.705 840.913 126.236 848.679 138.499C849.502 139.835 850.716 140.884 852.157 141.506C853.598 142.127 855.195 142.289 856.732 141.97C858.275 141.672 859.691 140.911 860.79 139.786C861.889 138.662 862.62 137.229 862.883 135.679Z" fill="#5B7FC9"/>
<path fill-rule="evenodd" clip-rule="evenodd" d="M867.244 34.5947C870.611 70.7232 854.405 95.0264 818.625 107.504C830.66 115.666 840.889 126.213 848.68 138.491C849.503 139.827 850.717 140.877 852.158 141.498C853.599 142.119 855.196 142.281 856.732 141.962C858.276 141.665 859.692 140.903 860.791 139.779C861.89 138.654 862.619 137.222 862.882 135.672C865.486 121.355 870.994 107.722 879.065 95.614C887.137 83.506 897.603 73.1786 909.817 65.268C911.149 64.4255 912.192 63.1971 912.808 61.7466C913.424 60.2961 913.583 58.6923 913.265 57.149C912.985 55.6005 912.237 54.1749 911.123 53.0642C910.008 51.9535 908.58 51.211 907.031 50.9367C892.781 48.2981 879.233 42.7337 867.242 34.5947" fill="#4267BA"/>
<path fill-rule="evenodd" clip-rule="evenodd" d="M649.579 1012.02C652.183 997.701 657.69 984.068 665.762 971.96C673.834 959.852 684.3 949.524 696.515 941.614C697.846 940.772 698.889 939.543 699.504 938.092C700.12 936.642 700.279 935.038 699.96 933.495C699.682 931.947 698.935 930.521 697.821 929.41C696.706 928.299 695.278 927.557 693.728 927.283C679.464 924.614 665.902 919.037 653.887 910.899C641.872 902.761 631.66 892.237 623.889 879.982C623.069 878.643 621.855 877.59 620.413 876.968C618.972 876.347 617.373 876.187 615.836 876.511C614.292 876.797 612.874 877.553 611.773 878.673C610.673 879.794 609.945 881.226 609.687 882.776C607.083 897.094 601.575 910.727 593.502 922.835C585.429 934.943 574.962 945.27 562.746 953.179C561.414 954.022 560.371 955.25 559.756 956.701C559.14 958.152 558.982 959.755 559.302 961.298C559.58 962.847 560.327 964.273 561.441 965.384C562.555 966.495 563.984 967.237 565.534 967.511C579.801 970.179 593.366 975.759 605.383 983.901C617.399 992.044 627.609 1002.57 635.375 1014.84C636.198 1016.17 637.413 1017.22 638.854 1017.84C640.294 1018.47 641.892 1018.63 643.428 1018.31C644.971 1018.01 646.387 1017.25 647.486 1016.12C648.585 1015 649.317 1013.57 649.579 1012.02Z" fill="#5B7FC9"/>
<path fill-rule="evenodd" clip-rule="evenodd" d="M653.939 910.943C657.306 947.071 641.1 971.375 605.32 983.853C617.36 992.008 627.591 1002.56 635.375 1014.84C636.198 1016.17 637.412 1017.22 638.853 1017.85C640.294 1018.47 641.891 1018.63 643.427 1018.31C644.971 1018.01 646.387 1017.25 647.486 1016.13C648.585 1015 649.314 1013.57 649.577 1012.02C652.181 997.702 657.688 984.07 665.76 971.962C673.832 959.854 684.298 949.526 696.512 941.616C697.844 940.773 698.886 939.545 699.502 938.094C700.118 936.644 700.277 935.04 699.958 933.497C699.679 931.948 698.933 930.523 697.818 929.412C696.704 928.301 695.276 927.559 693.726 927.285C679.476 924.646 665.93 919.082 653.939 910.943Z" fill="#4267BA"/>
<path fill-rule="evenodd" clip-rule="evenodd" d="M154.715 297.255C153.841 294.754 153.99 292.009 155.131 289.618C156.272 287.227 158.312 285.383 160.806 284.49C162.042 284.059 163.351 283.876 164.657 283.953C165.964 284.03 167.242 284.364 168.419 284.937C169.596 285.509 170.648 286.309 171.514 287.29C172.381 288.271 173.044 289.413 173.468 290.652L187.903 332.183C188.778 334.684 188.629 337.43 187.487 339.821C186.346 342.213 184.305 344.056 181.81 344.948C180.574 345.379 179.266 345.562 177.959 345.485C176.653 345.409 175.374 345.074 174.197 344.502C173.02 343.929 171.969 343.129 171.102 342.149C170.236 341.168 169.572 340.025 169.149 338.787L154.715 297.255Z" fill="#F0393C"/>
<path fill-rule="evenodd" clip-rule="evenodd" d="M182.287 376.612C181.411 374.111 181.56 371.365 182.701 368.974C183.842 366.582 185.883 364.739 188.378 363.847C189.612 363.414 190.919 363.229 192.225 363.303C193.531 363.377 194.809 363.708 195.986 364.278C197.163 364.848 198.216 365.646 199.083 366.625C199.951 367.603 200.616 368.744 201.041 369.981L215.468 411.538C216.337 414.039 216.184 416.783 215.043 419.172C213.902 421.562 211.865 423.405 209.373 424.303C208.138 424.734 206.829 424.916 205.523 424.839C204.216 424.763 202.938 424.429 201.761 423.856C200.584 423.283 199.533 422.484 198.666 421.503C197.8 420.522 197.136 419.38 196.712 418.142L182.281 376.61" fill="#F0393C"/>
<path fill-rule="evenodd" clip-rule="evenodd" d="M128.42 385.019C127.186 385.452 125.878 385.637 124.573 385.563C123.267 385.489 121.989 385.158 120.812 384.588C119.635 384.017 118.583 383.22 117.715 382.241C116.848 381.263 116.183 380.122 115.758 378.885C114.883 376.384 115.033 373.638 116.174 371.247C117.316 368.856 119.356 367.013 121.851 366.12L163.054 351.554C164.289 351.123 165.598 350.941 166.905 351.018C168.211 351.094 169.489 351.429 170.666 352.001C171.843 352.574 172.895 353.373 173.762 354.354C174.629 355.335 175.293 356.477 175.717 357.715C176.591 360.216 176.44 362.961 175.299 365.352C174.158 367.743 172.118 369.586 169.624 370.48L128.418 385.021" fill="#F0393C"/>
<path fill-rule="evenodd" clip-rule="evenodd" d="M207.13 357.217C205.896 357.651 204.589 357.836 203.283 357.761C201.978 357.687 200.7 357.356 199.523 356.785C198.346 356.215 197.294 355.418 196.426 354.439C195.559 353.461 194.893 352.32 194.469 351.084C193.594 348.582 193.744 345.837 194.885 343.446C196.027 341.055 198.067 339.212 200.561 338.319L241.768 323.778C243.002 323.344 244.309 323.159 245.615 323.233C246.92 323.307 248.198 323.639 249.375 324.209C250.552 324.779 251.605 325.577 252.472 326.555C253.339 327.534 254.005 328.675 254.429 329.912C255.303 332.413 255.153 335.158 254.012 337.549C252.87 339.94 250.83 341.783 248.336 342.677L207.13 357.217Z" fill="#F0393C"/>
<path fill-rule="evenodd" clip-rule="evenodd" d="M873.395 757.214C873.037 754.759 873.666 752.261 875.147 750.269C876.627 748.277 878.837 746.954 881.291 746.589C882.505 746.42 883.741 746.492 884.927 746.801C886.113 747.11 887.227 747.649 888.204 748.389C889.182 749.128 890.004 750.053 890.624 751.111C891.244 752.168 891.649 753.337 891.817 754.552L897.588 795.353C897.942 797.804 897.31 800.297 895.83 802.283C894.35 804.27 892.143 805.588 889.692 805.95C888.478 806.122 887.242 806.052 886.055 805.744C884.868 805.436 883.753 804.897 882.775 804.157C881.797 803.417 880.975 802.491 880.356 801.432C879.737 800.374 879.334 799.203 879.169 797.988L873.395 757.212" fill="#43BB4E"/>
<path fill-rule="evenodd" clip-rule="evenodd" d="M884.424 835.136C884.071 832.684 884.703 830.192 886.183 828.206C887.663 826.22 889.87 824.901 892.32 824.538C893.534 824.366 894.77 824.436 895.957 824.744C897.144 825.052 898.259 825.591 899.237 826.331C900.215 827.071 901.037 827.997 901.656 829.056C902.275 830.115 902.678 831.285 902.843 832.5L908.617 873.276C908.975 875.732 908.346 878.229 906.865 880.221C905.385 882.213 903.175 883.536 900.721 883.901C899.506 884.073 898.27 884.002 897.083 883.695C895.896 883.387 894.781 882.847 893.803 882.107C892.825 881.368 892.003 880.442 891.384 879.383C890.765 878.324 890.361 877.154 890.195 875.939L884.424 835.138" fill="#43BB4E"/>
<path fill-rule="evenodd" clip-rule="evenodd" d="M833.425 832.994C832.211 833.165 830.975 833.095 829.788 832.787C828.601 832.479 827.486 831.939 826.508 831.199C825.53 830.46 824.708 829.534 824.089 828.475C823.47 827.417 823.066 826.247 822.9 825.031C822.548 822.579 823.181 820.088 824.662 818.101C826.142 816.115 828.349 814.796 830.8 814.434L871.272 808.613C872.486 808.441 873.723 808.512 874.91 808.819C876.097 809.127 877.211 809.666 878.189 810.406C879.167 811.146 879.989 812.072 880.608 813.131C881.227 814.19 881.631 815.36 881.795 816.576C882.148 819.027 881.516 821.519 880.036 823.505C878.556 825.491 876.35 826.81 873.9 827.173L833.425 832.994Z" fill="#43BB4E"/>
<path fill-rule="evenodd" clip-rule="evenodd" d="M910.742 821.874C909.528 822.045 908.292 821.976 907.104 821.668C905.917 821.36 904.802 820.821 903.824 820.081C902.846 819.341 902.024 818.415 901.405 817.356C900.786 816.297 900.382 815.126 900.217 813.911C899.863 811.459 900.496 808.966 901.977 806.979C903.458 804.993 905.666 803.675 908.117 803.313L948.583 797.493C949.798 797.321 951.034 797.392 952.221 797.699C953.408 798.007 954.523 798.547 955.501 799.287C956.479 800.026 957.301 800.952 957.92 802.011C958.539 803.069 958.943 804.24 959.109 805.455C959.462 807.907 958.83 810.399 957.35 812.385C955.87 814.371 953.663 815.69 951.213 816.053L910.742 821.874Z" fill="#43BB4E"/>
<path fill-rule="evenodd" clip-rule="evenodd" d="M869.486 458.476C874.7 457.621 880.031 457.804 885.174 459.014C890.316 460.224 895.17 462.437 899.455 465.527C903.741 468.617 907.374 472.523 910.147 477.02C912.919 481.517 914.777 486.517 915.612 491.734C917.383 502.27 914.907 513.078 908.726 521.792C902.545 530.506 893.163 536.415 882.635 538.227C877.421 539.082 872.09 538.899 866.947 537.689C861.804 536.479 856.951 534.266 852.665 531.176C848.38 528.086 844.747 524.181 841.974 519.684C839.201 515.186 837.344 510.186 836.508 504.969C834.737 494.433 837.213 483.625 843.394 474.911C849.575 466.197 858.957 460.288 869.486 458.476Z" fill="#F0393C"/>
<path fill-rule="evenodd" clip-rule="evenodd" d="M412.517 8.09729C417.731 7.24243 423.062 7.42522 428.204 8.63526C433.347 9.84529 438.2 12.0588 442.485 15.1487C446.77 18.2385 450.404 22.144 453.176 26.6411C455.949 31.1382 457.806 36.1384 458.642 41.3549C460.413 51.8906 457.937 62.6989 451.756 71.4129C445.575 80.1268 436.193 86.0365 425.664 87.8476C420.452 88.7039 415.123 88.5232 409.982 87.3159C404.84 86.1086 399.987 83.8984 395.702 80.8121C391.416 77.7257 387.782 73.8238 385.007 69.3301C382.232 64.8365 380.371 59.8393 379.532 54.6251C377.761 44.0863 380.236 33.275 386.417 24.557C392.598 15.839 401.98 9.92423 412.511 8.10708" fill="#F9B317"/>
</g>
<defs>
<clipPath id="clip0_735_77">
<rect width="1024" height="1024" fill="white"/>
</clipPath>
</defs>
</svg>
