<svg width="1024" height="1024" viewBox="0 0 1024 1024" fill="none" xmlns="http://www.w3.org/2000/svg">
<g clip-path="url(#clip0_726_474)">
<path d="M496 97L96 496.968V996.392H928V528.968L496 97Z" fill="#EAEAEA"/>
<path d="M256 672H480V1024H256V672Z" fill="#434854"/>
<path d="M544 640H640V736H544V640ZM672 640H768V736H672V640ZM672 512H768V608H672V512ZM544 512H640V608H544V512Z" fill="#469FCC"/>
<path d="M544 512H640V544H544V512ZM672 512H768V544H672V512ZM544 640H640V672H544V640ZM672 640H768V672H672V640Z" fill="black"/>
<path d="M496 64L96 480V576L496 176L928 608V512L496 64Z" fill="black"/>
<path d="M1012.58 505.376L541.249 34.0484L518.625 11.4244C515.656 8.45017 512.13 6.09056 508.248 4.48061C504.366 2.87067 500.204 2.04199 496.001 2.04199C491.799 2.04199 487.637 2.87067 483.755 4.48061C479.873 6.09056 476.347 8.45017 473.377 11.4244L450.753 34.0484L11.4254 473.376C8.45114 476.346 6.09153 479.872 4.48159 483.754C2.87165 487.636 2.04297 491.798 2.04297 496C2.04297 500.203 2.87165 504.365 4.48159 508.247C6.09153 512.129 8.45114 515.655 11.4254 518.624L34.0494 541.248C37.0186 544.223 40.5452 546.582 44.4272 548.192C48.3093 549.802 52.4707 550.631 56.6734 550.631C60.8761 550.631 65.0375 549.802 68.9196 548.192C72.8017 546.582 76.3282 544.223 79.2974 541.248L496.001 124.608L944.673 573.28C947.643 576.255 951.169 578.614 955.051 580.224C958.933 581.834 963.095 582.663 967.297 582.663C971.5 582.663 975.662 581.834 979.544 580.224C983.426 578.614 986.952 576.255 989.921 573.28L1012.55 550.656C1018.55 544.654 1021.93 536.514 1021.93 528.023C1021.94 519.533 1018.57 511.387 1012.58 505.376Z" fill="#EF4D4D"/>
<path d="M238.24 1024C249.748 1004.63 255.879 982.533 256 960C256 926.052 242.514 893.495 218.51 869.49C194.505 845.486 161.948 832 128 832C94.0523 832 61.495 845.486 37.4903 869.49C13.4857 893.495 0 926.052 0 960C0 983.424 6.752 1005.09 17.76 1024H238.24ZM896 832C871.467 832.027 847.461 839.118 826.851 852.425C806.24 865.732 789.898 884.692 779.776 907.04C766.285 899.89 751.268 896.103 736 896C710.539 896 686.121 906.114 668.118 924.118C650.114 942.121 640 966.539 640 992C640 1003.3 642.304 1013.95 645.888 1024H1006.27C1017.76 1004.62 1023.87 982.528 1024 960C1024 926.052 1010.51 893.495 986.51 869.49C962.505 845.486 929.948 832 896 832Z" fill="#3AAD73"/>
<path d="M779.776 907.04C766.285 899.89 751.268 896.103 736 896C710.539 896 686.121 906.114 668.118 924.118C650.114 942.121 640 966.539 640 992C640 1003.3 642.304 1013.95 645.888 1024H785.76C774.252 1004.63 768.121 982.533 768 960C768 941.056 772.384 923.232 779.776 907.04Z" fill="black"/>
</g>
<defs>
<clipPath id="clip0_726_474">
<rect width="1024" height="1024" fill="white"/>
</clipPath>
</defs>
</svg>
