<svg width="1024" height="1024" viewBox="0 0 1024 1024" fill="none" xmlns="http://www.w3.org/2000/svg">
<path d="M959.717 748.598H64.2812L64.6793 716.854C66.1833 598.572 113.393 487.604 197.569 404.408C281.851 321.15 393.509 275.28 511.999 275.28C630.489 275.28 742.149 321.152 826.429 404.408C910.605 487.602 957.815 598.57 959.319 716.854L959.717 748.598Z" fill="#DFCCBE"/>
<path d="M217.413 623.29L156.699 607.652C158.223 601.746 195.419 462.38 322.921 406.882L347.943 464.366C248.187 507.788 217.709 622.14 217.413 623.29Z" fill="white"/>
<path d="M959.718 748.598H512V275.28C630.492 275.28 742.15 321.152 826.43 404.408C910.606 487.602 957.816 598.57 959.32 716.854L959.718 748.598Z" fill="#C9AD91"/>
<path d="M557.914 258.624C557.914 283.974 537.35 304.536 512.002 304.536C486.654 304.536 466.09 283.972 466.09 258.624C466.09 233.274 486.654 212.712 512.002 212.712C537.352 212.712 557.914 233.274 557.914 258.624Z" fill="#8A6746"/>
<path d="M512 304.536V212.71C537.35 212.71 557.912 233.274 557.912 258.622C557.912 283.97 537.35 304.536 512 304.536Z" fill="#664B33"/>
<path d="M1024 748.596H0V811.29H1024V748.596Z" fill="#8A6746"/>
<path d="M1024 748.596H512V811.29H1024V748.596Z" fill="#664B33"/>
</svg>
