<svg width="1024" height="1024" viewBox="0 0 1024 1024" fill="none" xmlns="http://www.w3.org/2000/svg">
<path d="M500.16 127.36C487.36 127.36 480 128 480 128C480 128 128 160 128 544C128 544 128 768 256 768C368 768 382.08 596.48 448 596.48C457.6 596.48 467.84 600 480 608C576 672 256 768 352 864C377.28 889.28 427.52 903.68 487.36 903.68C654.08 903.68 896 794.24 896 512C896 151.36 583.68 127.36 500.16 127.36ZM487.36 871.68C436.48 871.68 393.28 860.16 374.72 841.28C365.44 832 365.76 826.56 365.76 824.96C367.36 802.88 411.84 768 444.48 742.4C491.2 705.6 531.84 674.24 530.24 632.96C529.6 618.88 523.52 598.72 497.92 581.44C480.96 570.24 464.32 564.48 448 564.48C400.96 564.48 376 607.712 351.36 649.28C320.96 701.76 297.92 736 256 736C162.88 736 160 545.92 160 544C160 194.56 469.76 161.28 482.56 160C482.88 160 489.28 159.36 500.16 159.36C585.6 159.36 864 184.96 864 512C864 776 638.72 871.68 487.36 871.68Z" fill="#2D2220"/>
<path d="M802.24 293.12C716.8 231.04 611.2 223.36 564.16 223.36C553.28 223.36 546.88 224 546.56 224C533.76 225.28 224 258.56 224 608C224 609.28 224.96 680 247.04 735.36C249.92 735.68 252.8 736 256 736C297.92 736 320.96 701.76 351.36 649.28C376 607.68 400.96 564.48 448 564.48C464.32 564.48 480.96 570.272 497.92 581.44C522.24 598.112 528.96 616.96 529.92 631.04C530.24 631.712 530.24 632.32 530.24 632.992C531.84 674.272 491.2 705.632 444.48 742.432C411.84 768.032 367.36 802.912 365.76 824.992C365.76 826.592 365.44 832.032 374.72 841.312C387.2 854.112 410.56 863.392 440.32 867.872C454.72 870.432 470.72 871.712 487.36 871.712C638.72 871.68 864 776 864 512C864 414.72 839.36 344 802.24 293.12ZM416 416C380.8 416 352 387.2 352 352C352 316.8 380.8 288 416 288C451.2 288 480 316.8 480 352C480 387.2 451.2 416 416 416ZM672 704C636.8 704 608 675.2 608 640C608 604.8 636.8 576 672 576C707.2 576 736 604.8 736 640C736 675.2 707.2 704 672 704ZM672 448C636.8 448 608 419.2 608 384C608 348.8 636.8 320 672 320C707.2 320 736 348.8 736 384C736 419.2 707.2 448 672 448Z" fill="#FFD561"/>
<path d="M256 480C220.8 480 192 508.8 192 544C192 579.2 220.8 608 256 608C291.2 608 320 579.2 320 544C320 508.8 291.2 480 256 480ZM256 576C238.4 576 224 561.6 224 544C224 526.4 238.4 512 256 512C273.6 512 288 526.4 288 544C288 561.6 273.6 576 256 576Z" fill="#2D2220"/>
<path d="M256 576C273.673 576 288 561.673 288 544C288 526.327 273.673 512 256 512C238.327 512 224 526.327 224 544C224 561.673 238.327 576 256 576Z" fill="#31CFFF"/>
<path d="M416 256C362.88 256 320 298.88 320 352C320 405.12 362.88 448 416 448C469.12 448 512 405.12 512 352C512 298.88 469.12 256 416 256ZM416 416C380.8 416 352 387.2 352 352C352 316.8 380.8 288 416 288C451.2 288 480 316.8 480 352C480 387.2 451.2 416 416 416Z" fill="#2D2220"/>
<path d="M480 352C480 387.2 451.2 416 416 416C406.72 416 397.76 414.08 389.76 410.24C385.92 402.24 384 393.28 384 384C384 348.8 412.8 320 448 320C457.28 320 466.24 321.92 474.24 325.76C478.08 333.76 480 342.72 480 352Z" fill="#E371FF"/>
<path d="M672 288C618.88 288 576 330.88 576 384C576 437.12 618.88 480 672 480C725.12 480 768 437.12 768 384C768 330.88 725.12 288 672 288ZM672 448C636.8 448 608 419.2 608 384C608 348.8 636.8 320 672 320C707.2 320 736 348.8 736 384C736 419.2 707.2 448 672 448Z" fill="#2D2220"/>
<path d="M736 384C736 419.2 707.2 448 672 448C662.72 448 653.76 446.08 645.76 442.24C641.92 434.24 640 425.28 640 416C640 380.8 668.8 352 704 352C713.28 352 722.24 353.92 730.24 357.76C734.08 365.76 736 374.72 736 384Z" fill="#FF6B43"/>
<path d="M672 544C618.88 544 576 586.88 576 640C576 693.12 618.88 736 672 736C725.12 736 768 693.12 768 640C768 586.88 725.12 544 672 544ZM672 704C636.8 704 608 675.2 608 640C608 604.8 636.8 576 672 576C707.2 576 736 604.8 736 640C736 675.2 707.2 704 672 704Z" fill="#2D2220"/>
<path d="M736 640C736 675.2 707.2 704 672 704C662.72 704 653.76 702.08 645.76 698.24C641.92 690.24 640 681.28 640 672C640 636.8 668.8 608 704 608C713.28 608 722.24 609.92 730.24 613.76C734.08 621.76 736 630.72 736 640Z" fill="#FFA28D"/>
</svg>
