<svg width="1024" height="1024" viewBox="0 0 1024 1024" fill="none" xmlns="http://www.w3.org/2000/svg">
<path d="M762.5 421.2C874.4 438.4 960.5 535.3 960.5 652C960.5 780.8 855.7 885.5 727 885.5C698.1 885.5 670.4 880.2 644.8 870.5H161.5C130.2 870.5 104.8 845 104.8 813.7C104.8 796.2 112.6 780.5 125.3 770C109.9 741.9 101.8 710.4 101.8 677.9C101.8 626.5 122.5 577.1 158.9 541.1V324.5C158.9 320.6 159.2 316.7 159.6 312.9H83.6C71.9 312.9 62.5 303.5 62.5 291.8V155.8C62.5 144.1 72 134.7 83.6 134.7H836.3C848 134.7 857.4 144.2 857.4 155.8V291.8C857.4 303.5 847.9 312.9 836.3 312.9H762.5V421.2Z" fill="#663333"/>
<path d="M833.599 717.4L906.599 717.7C893.199 754.3 868.899 785.7 837.599 808C806.299 830.3 768.099 843.4 726.899 843.4C644.499 843.4 573.999 791 547.199 717.7L620.399 717.4C661.199 717.3 694.399 684 694.299 643.1C694.199 602.3 660.999 569.2 620.199 569.2H619.999L554.399 569.4C562.599 552.3 573.299 536.7 585.999 522.8L619.799 522.7H620.199C655.799 522.7 689.399 538.4 712.399 565.8C713.099 566.6 713.899 567.4 714.699 568.1C718.299 571.1 722.599 572.6 726.899 572.6C732.299 572.6 737.699 570.3 741.499 565.8C764.499 538.4 798.099 522.7 833.699 522.7L867.699 522.8C873.999 529.7 879.899 537.1 885.199 544.9C890.499 552.7 895.199 560.9 899.299 569.4L833.999 569.2H833.799C792.999 569.2 759.799 602.3 759.699 643.1C759.699 683.9 792.799 717.2 833.599 717.4Z" fill="#FDCB81"/>
<path d="M815.101 176.9V270.6H616.701C608.601 258.5 597.801 248.4 585.301 241V176.9H815.101Z" fill="#CA5F38"/>
<path d="M740.298 461.2C769.298 463.2 796.498 471.7 820.498 485.2C785.598 488.1 752.898 502.5 727.098 526.1C714.198 514.3 699.498 504.8 683.698 497.9C667.898 491 650.898 486.7 633.398 485.2C661.098 469.6 692.998 460.7 726.898 460.7C731.398 460.8 735.898 460.9 740.298 461.2Z" fill="#B88D5B"/>
<path d="M773.998 756.9C782.698 762.8 785.098 774.6 779.198 783.3C767.798 800.4 748.598 810.6 728.098 810.6C707.498 810.6 688.398 800.4 676.998 783.3C671.198 774.6 673.498 762.8 682.198 756.9C690.898 751.1 702.698 753.4 708.598 762.1C712.998 768.6 720.298 772.5 728.098 772.5C735.898 772.5 743.198 768.6 747.598 762.1C753.498 753.4 765.298 751.1 773.998 756.9ZM736.098 674.1C746.598 674.1 755.098 682.6 755.098 693.1C755.098 703.6 746.598 712.1 736.098 712.1H720.798C710.298 712.1 701.798 703.6 701.798 693.1C701.798 682.6 710.298 674.1 720.798 674.1H736.098Z" fill="#663333"/>
<path d="M720.3 312.9V418.6C689.4 419.5 660 426.4 633.2 438.2V324.5C633.2 320.6 632.9 316.7 632.5 312.9H720.3Z" fill="#FDCB81"/>
<path d="M656.302 643.2C656.402 663.1 640.202 679.3 620.302 679.4L537.602 679.7C536.302 670.7 535.602 661.5 535.602 652.1C535.602 636.8 537.402 621.8 540.802 607.5L620.002 607.3H620.102C640.102 607.2 656.302 623.3 656.302 643.2Z" fill="#B88D5B"/>
<path d="M619.702 622.3C631.402 622.3 640.802 631.7 640.802 643.4C640.802 655.1 631.402 664.5 619.702 664.5C608.002 664.5 598.602 655 598.602 643.4C598.602 631.8 608.102 622.3 619.702 622.3Z" fill="#663333"/>
<path d="M590.9 324.5V462.4C531.9 504.8 493.5 574 493.5 652C493.5 722.3 524.7 785.5 574.1 828.3H161.5C153.5 828.3 147 821.8 147 813.8C147 806.7 152.1 800.7 159.1 799.6C166.3 798.4 172.4 793.6 175.2 786.8C178 780 177 772.3 172.7 766.3C154 740.5 144 710 144 678C144 635.3 162.3 594.5 194.1 566C198.6 562 201.1 556.3 201.1 550.3V324.4C201.1 294.3 225.5 269.9 255.6 269.9C285.7 269.9 310.1 294.3 310.1 324.4V506.5C310.1 518.2 319.6 527.6 331.2 527.6H460.6C472.3 527.6 481.7 518.2 481.7 506.5V324.5C481.7 294.4 506.1 270 536.2 270C566.3 270 590.9 294.4 590.9 324.5Z" fill="#FDCB81"/>
<path d="M547.302 176.9V228.3C543.702 227.9 540.102 227.7 536.402 227.7C532.702 227.7 529.102 227.9 525.502 228.3V176.9H547.302ZM487.402 176.9V241C474.802 248.4 464.102 258.5 456.002 270.6H336.002C327.902 258.5 317.102 248.4 304.602 241V176.9H487.402Z" fill="#CA5F38"/>
<path d="M351.699 312.9H440.299C439.799 316.7 439.599 320.5 439.599 324.5V485.5H352.499V324.5C352.399 320.5 352.199 316.7 351.699 312.9Z" fill="#FDCB81"/>
<path d="M418.502 754.4C430.202 754.4 439.602 763.9 439.602 775.5C439.602 787.2 430.102 796.6 418.502 796.6H279.202C267.502 796.6 258.102 787.1 258.102 775.5C258.102 763.8 267.502 754.4 279.202 754.4H418.502Z" fill="#663333"/>
<path d="M266.599 176.9V228.3C262.999 227.9 259.399 227.7 255.699 227.7C251.999 227.7 248.399 227.9 244.799 228.3V176.9H266.599ZM206.699 176.9V241C194.099 248.4 183.399 258.5 175.299 270.6H104.699V176.9H206.699Z" fill="#CA5F38"/>
<path d="M912.999 607.5C916.399 621.8 918.199 636.7 918.199 652.1C918.199 661.5 917.499 670.7 916.199 679.7L833.699 679.4C813.799 679.4 797.699 663.1 797.699 643.3C797.799 623.4 813.899 607.3 833.799 607.3H833.899L912.999 607.5Z" fill="#B88D5B"/>
<path d="M918.201 652C918.201 636.7 916.401 621.7 913.001 607.4L834.001 607.2H833.901C814.101 607.2 797.901 623.3 797.801 643.2C797.701 663.1 813.901 679.3 833.801 679.3L916.301 679.6C917.501 670.6 918.201 661.4 918.201 652Z" fill="#B88D5B"/>
<path d="M855.501 643.5C855.501 631.8 846.001 622.4 834.401 622.4C822.701 622.4 813.301 631.8 813.301 643.5C813.301 655.2 822.701 664.6 834.401 664.6C846.001 664.6 855.501 655.1 855.501 643.5Z" fill="#663333"/>
<path d="M834.402 622.3C846.102 622.3 855.502 631.7 855.502 643.4C855.502 655.1 846.002 664.5 834.402 664.5C822.702 664.5 813.302 655 813.302 643.4C813.202 631.8 822.702 622.3 834.402 622.3Z" fill="#663333"/>
</svg>
