<svg width="1024" height="1024" viewBox="0 0 1024 1024" fill="none" xmlns="http://www.w3.org/2000/svg">
<path d="M490.668 256H533.335V810.667H490.668V256Z" fill="#B0BEC5"/>
<path d="M704 768H661.333L618.667 704C588.8 661.333 537.6 654.933 512 654.933C443.733 654.933 411.733 704 411.733 704L369.067 768H320L369.067 676.267L384 605.867C394.667 563.2 416 533.333 456.533 533.333H618.667L629.333 590.933L661.333 678.4L704 768Z" fill="#FF9800"/>
<path d="M512 128C512 128 256 215.467 256 298.667C256 322.133 294.4 341.333 341.333 341.333C388.267 341.333 426.667 322.133 426.667 298.667C426.667 230.4 465.067 219.733 512 219.733C558.933 219.733 597.333 322.133 597.333 298.667C597.333 322.133 635.733 341.333 682.667 341.333C729.6 341.333 768 322.133 768 298.667C768 209.067 512 128 512 128ZM597.333 810.667H768V896H597.333V810.667ZM256 810.667H426.667V896H256V810.667Z" fill="#FFC107"/>
<path d="M514.135 546.134C599.469 546.134 552.535 405.333 697.602 405.333L686.935 428.8L746.669 512L714.669 533.333L676.269 505.6C652.802 518.4 637.868 503.467 637.868 503.467V625.067C640.002 627.2 484.269 546.134 514.135 546.134Z" fill="#FF9800"/>
<path d="M533.332 533.333C548.266 497.067 571.732 405.333 697.599 405.333L686.932 428.8C686.932 428.8 590.932 428.8 590.932 533.333C590.932 533.333 565.332 565.333 533.332 533.333ZM396.799 571.733C401.066 563.2 407.466 556.8 413.866 550.4C392.532 529.067 369.066 512 343.466 512C315.732 512 275.199 529.067 260.266 580.267L311.466 608C337.066 537.6 375.466 556.8 396.799 571.733Z" fill="#EF6C00"/>
<path d="M512 128C512 128 768 234.667 768 298.667C768 322.133 795.733 341.333 832 341.333C868.267 341.333 896 322.133 896 298.667V266.667C896 247.467 883.2 230.4 864 226.133L512 128ZM512 128C512 128 256 234.667 256 298.667C256 322.133 228.267 341.333 192 341.333C155.733 341.333 128 322.133 128 298.667V266.667C128 247.467 140.8 230.4 160 226.133L512 128ZM512 128C512 128 426.667 213.333 426.667 298.667C426.667 322.133 465.067 341.333 512 341.333C558.933 341.333 597.333 322.133 597.333 298.667C597.333 213.333 512 128 512 128Z" fill="#FF5722"/>
<path d="M170.667 810.667C147.2 810.667 128 829.867 128 853.333V896H256V810.667H170.667ZM426.667 810.667H597.333V896H426.667V810.667ZM853.333 810.667H768V896H896V853.333C896 829.867 876.8 810.667 853.333 810.667Z" fill="#FF5722"/>
</svg>
