<svg width="1024" height="1024" viewBox="0 0 1024 1024" fill="none" xmlns="http://www.w3.org/2000/svg">
<path d="M648.672 372.414L598.466 322.212L547.5 373.176V242.126H476.498V373.176L425.534 322.212L375.328 372.414L476.498 473.588V531.391H547.5V473.588L648.672 372.414Z" fill="#60DD4D"/>
<path d="M598.464 322.212L547.498 373.176V242.126H511.996V531.391H547.498V473.588L648.67 372.414L598.464 322.212Z" fill="#00C47A"/>
<path d="M384.461 45.5557V150.085C384.461 220.409 441.673 277.625 512.001 277.625C582.329 277.625 639.54 220.413 639.54 150.085V45.5557H384.461Z" fill="#FF318F"/>
<path d="M511.996 45.5557V277.625C582.32 277.625 639.536 220.413 639.536 150.085V45.5557H511.996Z" fill="#BF256B"/>
<path d="M262.989 421.017L212.023 471.981V347.313H141.021V471.981L90.0575 421.017L39.8516 471.221L176.523 607.895L313.193 471.221L262.989 421.017Z" fill="#60DD4D"/>
<path d="M48.9805 127.733V232.263C48.9805 302.587 106.192 359.803 176.52 359.803C246.848 359.803 304.06 302.591 304.06 232.263V127.733H48.9805Z" fill="#FF318F"/>
<path d="M175.926 127.733V359.787C176.124 359.787 176.322 359.801 176.52 359.801C246.844 359.801 304.06 302.589 304.06 232.261V127.733H175.926Z" fill="#BF256B"/>
<path d="M933.94 421.017L882.976 471.981V347.313H811.975V471.981L761.009 421.017L710.805 471.221L847.474 607.895L984.146 471.221L933.94 421.017Z" fill="#00C47A"/>
<path d="M719.938 127.733V232.263C719.938 302.587 777.151 359.803 847.477 359.803C917.803 359.803 975.019 302.591 975.019 232.263V127.733H719.938Z" fill="#FF318F"/>
<path d="M846.879 127.733V359.787C847.077 359.787 847.275 359.801 847.473 359.801C917.797 359.801 975.015 302.589 975.015 232.261V127.733H846.879Z" fill="#BF256B"/>
<path d="M179.346 715.479H108.344V978.444H179.346V715.479Z" fill="#BF7300"/>
<path d="M915.658 715.479H844.656V978.444H915.658V715.479Z" fill="#BF7300"/>
<path d="M0 522.188L23.966 803.275C28.5899 862.431 78.6558 908.751 138.01 908.751H885.99C945.342 908.751 995.408 862.431 1000.03 803.275L1024 522.188H0Z" fill="#FFDB2D"/>
<path d="M511.996 522.188V908.749H885.985C945.337 908.749 995.403 862.431 1000.03 803.273L1024 522.188H511.996Z" fill="#FFAE33"/>
<path d="M760.492 750.978C780.098 750.978 795.992 735.085 795.992 715.478C795.992 695.872 780.098 679.979 760.492 679.979C740.886 679.979 724.992 695.872 724.992 715.478C724.992 735.085 740.886 750.978 760.492 750.978Z" fill="#BF7300"/>
<path d="M263.484 750.978C283.09 750.978 298.984 735.085 298.984 715.478C298.984 695.872 283.09 679.979 263.484 679.979C243.878 679.979 227.984 695.872 227.984 715.478C227.984 735.085 243.878 750.978 263.484 750.978Z" fill="#BF7300"/>
<path d="M511.988 750.978C531.594 750.978 547.488 735.085 547.488 715.478C547.488 695.872 531.594 679.979 511.988 679.979C492.382 679.979 476.488 695.872 476.488 715.478C476.488 735.085 492.382 750.978 511.988 750.978Z" fill="#BF7300"/>
</svg>
