<svg width="1024" height="1024" viewBox="0 0 1024 1024" fill="none" xmlns="http://www.w3.org/2000/svg">
<g clip-path="url(#clip0_726_520)">
<path d="M284.445 1024V199.111L398.223 85.333H455.112L568.89 199.111V1024H284.445ZM938.668 312.889C938.668 284.444 910.223 284.444 910.223 284.444H711.112C711.112 284.444 682.668 284.444 682.668 312.889V1024H938.668V312.889Z" fill="#3F484C"/>
<path d="M796.444 540.444C796.444 512 768 512 768 512H540.444C512 512 512 540.444 512 540.444V1024H796.444V540.444ZM312.889 597.333H170.667V398.222C170.667 398.222 170.667 369.777 142.222 369.777H0V910.222C0 940.398 11.9873 969.337 33.3247 990.675C54.6622 1012.01 83.602 1024 113.778 1024H341.333V625.777C341.333 625.777 341.333 597.333 312.889 597.333ZM910.222 711.111C881.778 711.111 881.778 739.555 881.778 739.555V1024H910.222C940.398 1024 969.338 1012.01 990.675 990.675C1012.01 969.337 1024 940.398 1024 910.222V711.111H910.222Z" fill="#292F33"/>
<path d="M227.557 881.778H284.446V938.667H227.557V881.778ZM227.557 654.222H284.446V711.111H227.557V654.222ZM170.668 768H227.557V824.889H170.668V768ZM455.112 256H512.001V312.889H455.112V256ZM455.112 369.778H512.001V426.667H455.112V369.778ZM398.224 483.556H455.112V540.444H398.224V483.556ZM682.668 568.889H739.557V625.778H682.668V568.889ZM625.779 682.667H682.668V739.556H625.779V682.667ZM568.89 853.333H625.779V910.222H568.89V853.333ZM824.89 341.333H881.779V398.222H824.89V341.333ZM824.89 455.111H881.779V512H824.89V455.111Z" fill="#FFCC4D"/>
<path d="M298.668 85.3331C306.522 85.3331 312.89 78.9656 312.89 71.1109C312.89 63.2562 306.522 56.8887 298.668 56.8887C290.813 56.8887 284.445 63.2562 284.445 71.1109C284.445 78.9656 290.813 85.3331 298.668 85.3331Z" fill="white"/>
<path d="M213.336 341.333C221.19 341.333 227.558 334.966 227.558 327.111C227.558 319.256 221.19 312.889 213.336 312.889C205.481 312.889 199.113 319.256 199.113 327.111C199.113 334.966 205.481 341.333 213.336 341.333Z" fill="white"/>
<path d="M625.78 170.666C641.49 170.666 654.225 157.931 654.225 142.222C654.225 126.512 641.49 113.777 625.78 113.777C610.071 113.777 597.336 126.512 597.336 142.222C597.336 157.931 610.071 170.666 625.78 170.666Z" fill="white"/>
<path d="M753.781 170.666C761.636 170.666 768.003 164.299 768.003 156.444C768.003 148.589 761.636 142.222 753.781 142.222C745.926 142.222 739.559 148.589 739.559 156.444C739.559 164.299 745.926 170.666 753.781 170.666Z" fill="white"/>
<path d="M881.78 113.778C897.49 113.778 910.225 101.043 910.225 85.3331C910.225 69.6237 897.49 56.8887 881.78 56.8887C866.071 56.8887 853.336 69.6237 853.336 85.3331C853.336 101.043 866.071 113.778 881.78 113.778Z" fill="white"/>
<path d="M896.003 227.556C903.858 227.556 910.226 221.188 910.226 213.334C910.226 205.479 903.858 199.111 896.003 199.111C888.149 199.111 881.781 205.479 881.781 213.334C881.781 221.188 888.149 227.556 896.003 227.556Z" fill="white"/>
<path d="M184.891 199.111C166.031 199.111 147.943 191.619 134.607 178.283C121.272 164.947 113.78 146.86 113.78 128C113.78 95.8576 135.255 69.006 164.524 60.2167C157.275 58.1068 149.774 56.9873 142.224 56.8887C119.592 56.8887 97.8873 65.8791 81.8842 81.8822C65.8811 97.8853 56.8906 119.59 56.8906 142.222C56.8906 164.854 65.8811 186.559 81.8842 202.562C97.8873 218.565 119.592 227.555 142.224 227.555C169.502 227.555 193.509 214.528 209.154 194.588C201.393 197.502 193.181 199.033 184.891 199.111Z" fill="white"/>
</g>
<defs>
<clipPath id="clip0_726_520">
<rect width="1024" height="1024" fill="white"/>
</clipPath>
</defs>
</svg>
